<?xml version="1.0" encoding="utf-8"?>
<!-- Generator: Adobe Illustrator 27.5.0, SVG Export Plug-In . SVG Version: 6.00 Build 0)  -->
<svg version="1.1" xmlns="http://www.w3.org/2000/svg" xmlns:xlink="http://www.w3.org/1999/xlink" x="0px" y="0px"
	 viewBox="0 0 500 500" style="enable-background:new 0 0 500 500;" xml:space="preserve">
<g id="Background_Complete">
	<rect x="416.779" y="398.494" style="fill:#EBEBEB;" width="33.122" height="0.25"/>
	<rect x="322.527" y="401.208" style="fill:#EBEBEB;" width="8.693" height="0.25"/>
	<rect x="396.586" y="389.208" style="fill:#EBEBEB;" width="19.192" height="0.25"/>
	<rect x="52.459" y="390.888" style="fill:#EBEBEB;" width="43.193" height="0.25"/>
	<rect x="104.556" y="390.888" style="fill:#EBEBEB;" width="6.333" height="0.25"/>
	<rect x="131.471" y="395.111" style="fill:#EBEBEB;" width="93.676" height="0.25"/>
	<g>
		<path style="fill:#EBEBEB;" d="M238.401,337.8H45.302c-3.147,0-5.708-2.561-5.708-5.708V60.66c0-3.147,2.561-5.708,5.708-5.708
			h193.099c3.146,0,5.707,2.561,5.707,5.708v271.432C244.108,335.239,241.547,337.8,238.401,337.8z M45.302,55.203
			c-3.01,0-5.458,2.448-5.458,5.458v271.432c0,3.01,2.448,5.458,5.458,5.458h193.099c3.009,0,5.457-2.448,5.457-5.458V60.66
			c0-3.009-2.448-5.458-5.457-5.458H45.302z"/>
		<path style="fill:#EBEBEB;" d="M454.698,337.8H261.599c-3.146,0-5.707-2.561-5.707-5.708V60.66c0-3.147,2.561-5.708,5.707-5.708
			h193.099c3.148,0,5.708,2.561,5.708,5.708v271.432C460.406,335.239,457.845,337.8,454.698,337.8z M261.599,55.203
			c-3.009,0-5.457,2.448-5.457,5.458v271.432c0,3.01,2.448,5.458,5.457,5.458h193.099c3.01,0,5.458-2.448,5.458-5.458V60.66
			c0-3.009-2.448-5.458-5.458-5.458H261.599z"/>
	</g>
	<rect y="382.398" style="fill:#EBEBEB;" width="500" height="0.25"/>
	<g>
		<g>
			<path style="fill:#E0E0E0;" d="M204.893,336.482h-120.6v-218.31l1.23-1.18c15.865-15.275,37.047-23.784,59.07-23.73l0,0
				c22.023-0.056,43.206,8.454,59.07,23.73l1.23,1.18V336.482z M92.293,328.482h104.6v-206.87c-29.588-27.134-75.012-27.134-104.6,0
				V328.482z"/>
			<polygon style="fill:#F5F5F5;" points="198.413,157.042 198.413,151.042 147.593,151.042 147.593,100.222 141.593,100.222 
				141.593,151.042 90.773,151.042 90.773,157.042 141.593,157.042 141.593,211.852 90.773,211.852 90.773,217.852 141.593,217.852 
				141.593,272.672 90.773,272.672 90.773,278.672 141.593,278.672 141.593,329.482 147.593,329.482 147.593,278.672 
				198.413,278.672 198.413,272.672 147.593,272.672 147.593,217.852 198.413,217.852 198.413,211.852 147.593,211.852 
				147.593,157.042 			"/>
			<path style="fill:#EBEBEB;" d="M208.893,340.482h-128.6v-223.94l1.17-1.17c34.895-34.843,91.415-34.843,126.31,0l1.17,1.17
				L208.893,340.482z M88.293,332.482h112.6v-212.61c-31.474-30.162-81.126-30.162-112.6,0V332.482z"/>
		</g>
		<g>
			<path style="fill:#E0E0E0;" d="M417.453,336.482h-120.6v-218.31l1.23-1.18c15.865-15.275,37.047-23.784,59.07-23.73l0,0
				c22.027-0.056,43.212,8.453,59.08,23.73l1.22,1.18V336.482z M304.853,328.482h104.6v-206.87
				c-29.588-27.134-75.012-27.134-104.6,0V328.482z"/>
			<polygon style="fill:#F5F5F5;" points="410.973,157.042 410.973,151.042 360.153,151.042 360.153,100.222 354.153,100.222 
				354.153,151.042 303.343,151.042 303.343,157.042 354.153,157.042 354.153,211.852 303.343,211.852 303.343,217.852 
				354.153,217.852 354.153,272.672 303.343,272.672 303.343,278.672 354.153,278.672 354.153,329.482 360.153,329.482 
				360.153,278.672 410.973,278.672 410.973,272.672 360.153,272.672 360.153,217.852 410.973,217.852 410.973,211.852 
				360.153,211.852 360.153,157.042 			"/>
			<path style="fill:#EBEBEB;" d="M421.453,340.482h-128.6v-223.94l1.18-1.17c34.885-34.809,91.365-34.809,126.25,0l1.17,1.17
				V340.482z M300.853,332.482h112.6v-212.61c-31.474-30.162-81.126-30.162-112.6,0V332.482z"/>
		</g>
		<path style="fill:#E0E0E0;" d="M302.342,101.807h-16.075c-0.584,0-1.057-0.985-1.057-2.201v-5.769
			c0-1.216,0.473-2.201,1.057-2.201h16.075c0.584,0,1.057,0.985,1.057,2.201v5.769C303.399,100.822,302.926,101.807,302.342,101.807
			z"/>
		<path style="fill:#EBEBEB;" d="M283.265,101.807H267.19c-0.584,0-1.057-0.985-1.057-2.201v-5.769c0-1.216,0.473-2.201,1.057-2.201
			h16.075c0.584,0,1.057,0.985,1.057,2.201v5.769C284.321,100.822,283.848,101.807,283.265,101.807z"/>
		<path style="fill:#F0F0F0;" d="M310.759,89.218h-16.075c-0.584,0-1.057-0.986-1.057-2.201v-5.769c0-1.215,0.473-2.201,1.057-2.201
			h16.075c0.584,0,1.057,0.986,1.057,2.201v5.769C311.815,88.232,311.342,89.218,310.759,89.218z"/>
		<path style="fill:#F5F5F5;" d="M291.721,89.218h-16.075c-0.584,0-1.057-0.986-1.057-2.201v-5.769c0-1.215,0.473-2.201,1.057-2.201
			h16.075c0.584,0,1.057,0.986,1.057,2.201v5.769C292.778,88.232,292.305,89.218,291.721,89.218z"/>
		<path style="fill:#EBEBEB;" d="M226.841,107.496h-16.075c-0.584,0-1.057-0.985-1.057-2.201v-5.769
			c0-1.215,0.473-2.201,1.057-2.201h16.075c0.584,0,1.057,0.985,1.057,2.201v5.769C227.897,106.511,227.424,107.496,226.841,107.496
			z"/>
		<path style="fill:#F0F0F0;" d="M231.335,94.908h-16.075c-0.584,0-1.057-0.985-1.057-2.201v-5.769c0-1.216,0.473-2.201,1.057-2.201
			h16.075c0.584,0,1.057,0.985,1.057,2.201v5.769C232.391,93.922,231.918,94.908,231.335,94.908z"/>
		<path style="fill:#F5F5F5;" d="M212.297,94.908h-16.075c-0.584,0-1.057-0.985-1.057-2.201v-5.769c0-1.216,0.473-2.201,1.057-2.201
			h16.075c0.584,0,1.057,0.985,1.057,2.201v5.769C213.354,93.922,212.881,94.908,212.297,94.908z"/>
		<path style="fill:#EBEBEB;" d="M57.081,104.264v-6.295c0-1.326,0.591-2.402,1.32-2.402h20.08c0.729,0,1.32,1.075,1.32,2.402v6.295
			c0,1.326-0.591,2.401-1.32,2.401h-20.08C57.672,106.665,57.081,105.59,57.081,104.264z"/>
		<path style="fill:#F0F0F0;" d="M74.311,90.51v-6.295c0-1.326,0.591-2.401,1.32-2.401h20.08c0.729,0,1.32,1.075,1.32,2.401v6.295
			c0,1.326-0.591,2.401-1.32,2.401h-20.08C74.902,92.911,74.311,91.836,74.311,90.51z"/>
		<path style="fill:#F5F5F5;" d="M259.555,192.982v-6.087c0-1.283,0.572-2.322,1.276-2.322h19.417c0.705,0,1.276,1.04,1.276,2.322
			v6.087c0,1.283-0.572,2.322-1.276,2.322h-19.417C260.126,195.304,259.555,194.264,259.555,192.982z"/>
		<path style="fill:#F0F0F0;" d="M264.216,179.682v-6.087c0-1.283,0.572-2.322,1.276-2.322h19.417c0.705,0,1.276,1.04,1.276,2.322
			v6.087c0,1.283-0.572,2.322-1.276,2.322h-19.417C264.787,182.005,264.216,180.965,264.216,179.682z"/>
		<path style="fill:#F0F0F0;" d="M215.913,168.279v-6.087c0-1.282,0.572-2.322,1.276-2.322h19.417c0.705,0,1.276,1.04,1.276,2.322
			v6.087c0,1.282-0.571,2.322-1.276,2.322h-19.417C216.484,170.601,215.913,169.561,215.913,168.279z"/>
		<path style="fill:#EBEBEB;" d="M419.055,103.286v-6.295c0-1.326,0.591-2.401,1.32-2.401h20.08c0.729,0,1.32,1.075,1.32,2.401
			v6.295c0,1.326-0.591,2.401-1.32,2.401h-20.08C419.646,105.688,419.055,104.612,419.055,103.286z"/>
		<path style="fill:#F5F5F5;" d="M402.695,89.532v-6.295c0-1.326,0.591-2.401,1.32-2.401h20.08c0.729,0,1.32,1.075,1.32,2.401v6.295
			c0,1.326-0.591,2.401-1.32,2.401h-20.08C403.286,91.934,402.695,90.859,402.695,89.532z"/>
	</g>
</g>
<g id="Background_Simple" style="display:none;">
	<g style="display:inline;">
		<g>
			<path style="fill:#407BFF;" d="M380.554,262.84c19.179-3.708,38.064-2.688,39.572-22.655
				c2.541-33.626-24.158-86.115-51.799-109.808c-45.573-39.066-93.563-6.342-135.196,25.625
				c-32.771,25.162-67.113,54.117-108.415,63.238c-10.723,2.368-28.267,2.769-37.375,9.831c-12.369,9.591-9.901,24.895-7.931,38.048
				c4.942,32.991,21.303,71.513,44.323,96.975c32.035,35.433,68.37,37.581,106.022,9.905c34.963-25.7,65.45-62.496,101.753-87.553
				C346.243,276.276,362.76,266.28,380.554,262.84z"/>
			<path style="opacity:0.9;fill:#FFFFFF;" d="M380.554,262.84c19.179-3.708,38.064-2.688,39.572-22.655
				c2.541-33.626-24.158-86.115-51.799-109.808c-45.573-39.066-93.563-6.342-135.196,25.625
				c-32.771,25.162-67.113,54.117-108.415,63.238c-10.723,2.368-28.267,2.769-37.375,9.831c-12.369,9.591-9.901,24.895-7.931,38.048
				c4.942,32.991,21.303,71.513,44.323,96.975c32.035,35.433,68.37,37.581,106.022,9.905c34.963-25.7,65.45-62.496,101.753-87.553
				C346.243,276.276,362.76,266.28,380.554,262.84z"/>
		</g>
	</g>
</g>
<g id="Shadow">
	<ellipse id="_x3C_Path_x3E__359_" style="fill:#F5F5F5;" cx="250" cy="415.693" rx="193.889" ry="11.323"/>
</g>
<g id="Shelves">
	<g id="freepik--Bookshelf--inject-2">
		<rect x="87.101" y="152.282" style="fill:#407BFF;" width="103.52" height="260.815"/>
		<rect x="87.101" y="152.282" style="opacity:0.2;fill:#FFFFFF;enable-background:new    ;" width="103.52" height="260.815"/>
		<path style="fill:#407BFF;" d="M68.031,150v265.421h19.07V150H68.031z"/>
		<path style="opacity:0.5;fill:#FFFFFF;enable-background:new    ;" d="M68.031,150v265.421h19.07V150H68.031z"/>
		<path style="fill:#407BFF;" d="M189.705,150v265.421h19.07V150H189.705z"/>
		<path style="opacity:0.4;fill:#FFFFFF;enable-background:new    ;" d="M189.705,150v265.421h19.07V150H189.705z"/>
		<path style="fill:#407BFF;" d="M84.768,150v265.421h127.247V150H84.768z M207.443,154.572v47.59H89.392v-47.59H207.443z
			 M89.392,306.48v-47.582h118.052v47.582H89.392z M207.443,311.078v47.582H89.392v-47.582H207.443z M89.392,254.326v-47.59h118.052
			v47.59H89.392z M89.392,410.806v-47.582h118.052v47.582H89.392z"/>
		<path style="opacity:0.7;fill:#FFFFFF;enable-background:new    ;" d="M84.768,150v265.421h127.247V150H84.768z M207.443,154.572
			v47.59H89.392v-47.59H207.443z M89.392,306.48v-47.582h118.052v47.582H89.392z M207.443,311.078v47.582H89.392v-47.582H207.443z
			 M89.392,254.326v-47.59h118.052v47.59H89.392z M89.392,410.806v-47.582h118.052v47.582H89.392z"/>
		<rect x="128.355" y="165.236" style="fill:#263238;" width="4.403" height="36.927"/>
		<rect x="123.952" y="165.236" style="fill:#407BFF;" width="4.403" height="36.927"/>
		<rect x="123.952" y="165.236" style="opacity:0.4;fill:#FFFFFF;enable-background:new    ;" width="4.403" height="36.927"/>
		<rect x="132.749" y="167.823" style="fill:#407BFF;" width="8.797" height="34.331"/>
		<rect x="132.749" y="167.823" style="opacity:0.6;fill:#FFFFFF;enable-background:new    ;" width="8.797" height="34.331"/>
		<rect x="145.949" y="165.236" style="fill:#407BFF;" width="5.684" height="36.927"/>
		<rect x="141.555" y="165.236" style="fill:#407BFF;" width="4.403" height="36.927"/>
		<rect x="141.555" y="165.236" style="opacity:0.7;fill:#FFFFFF;enable-background:new    ;" width="4.403" height="36.927"/>
		<rect x="179.322" y="165.236" style="fill:#407BFF;" width="5.684" height="36.927"/>
		<rect x="179.322" y="165.236" style="opacity:0.7;fill:#FFFFFF;enable-background:new    ;" width="5.684" height="36.927"/>
		<rect x="174.927" y="165.236" style="fill:#407BFF;" width="4.403" height="36.927"/>
		<rect x="174.927" y="165.236" style="opacity:0.6;fill:#FFFFFF;enable-background:new    ;" width="4.403" height="36.927"/>
		<rect x="160.438" y="165.236" style="fill:#407BFF;" width="5.684" height="36.927"/>
		<rect x="160.438" y="165.236" style="opacity:0.6;fill:#FFFFFF;enable-background:new    ;" width="5.684" height="36.927"/>
		<rect x="156.035" y="165.236" style="fill:#407BFF;" width="4.403" height="36.927"/>
		<rect x="156.035" y="165.236" style="opacity:0.1;enable-background:new    ;" width="4.403" height="36.927"/>
		<rect x="185.014" y="166.109" style="fill:#407BFF;" width="8.797" height="36.053"/>
		<rect x="185.014" y="166.109" style="opacity:0.1;fill:#FFFFFF;enable-background:new    ;" width="8.797" height="36.053"/>
		<rect x="193.811" y="166.109" style="fill:#407BFF;" width="4.403" height="36.053"/>
		<rect x="193.811" y="166.109" style="opacity:0.6;fill:#FFFFFF;enable-background:new    ;" width="4.403" height="36.053"/>
		<rect x="166.122" y="166.109" style="fill:#263238;" width="5.87" height="36.053"/>
		<rect x="171.992" y="166.109" style="fill:#407BFF;" width="2.935" height="36.053"/>
		<rect x="171.992" y="166.109" style="opacity:0.3;fill:#FFFFFF;enable-background:new    ;" width="2.935" height="36.053"/>
		<rect x="151.641" y="167.823" style="fill:#407BFF;" width="8.797" height="34.331"/>
		<rect x="151.641" y="167.823" style="opacity:0.1;fill:#FFFFFF;enable-background:new    ;" width="8.797" height="34.331"/>
		<rect x="105.069" y="165.236" style="fill:#407BFF;" width="5.684" height="36.927"/>
		<rect x="105.069" y="165.236" style="opacity:0.3;fill:#FFFFFF;enable-background:new    ;" width="5.684" height="36.927"/>
		<rect x="100.666" y="165.236" style="fill:#407BFF;" width="4.403" height="36.927"/>
		<rect x="100.666" y="165.236" style="opacity:0.2;fill:#FFFFFF;enable-background:new    ;" width="4.403" height="36.927"/>
		<rect x="110.752" y="166.109" style="fill:#263238;" width="8.797" height="36.053"/>
		<rect x="119.549" y="166.109" style="fill:#407BFF;" width="4.403" height="36.053"/>
		<rect x="119.549" y="166.109" style="opacity:0.6;fill:#FFFFFF;enable-background:new    ;" width="4.403" height="36.053"/>
		<rect x="91.869" y="166.109" style="fill:#407BFF;" width="5.87" height="36.053"/>
		<rect x="91.869" y="166.109" style="opacity:0.1;fill:#FFFFFF;enable-background:new    ;" width="5.87" height="36.053"/>
		<rect x="97.731" y="166.109" style="fill:#407BFF;" width="2.935" height="36.053"/>
		<rect x="97.731" y="166.109" style="opacity:0.6;fill:#FFFFFF;enable-background:new    ;" width="2.935" height="36.053"/>
		<rect x="155.815" y="217.518" style="fill:#407BFF;" width="4.292" height="36.817"/>
		<rect x="155.815" y="217.518" style="opacity:0.1;fill:#FFFFFF;enable-background:new    ;" width="4.292" height="36.817"/>
		<rect x="160.116" y="217.518" style="fill:#407BFF;" width="4.293" height="36.817"/>
		<rect x="160.116" y="217.518" style="opacity:0.4;fill:#FFFFFF;enable-background:new    ;" width="4.293" height="36.817"/>
		<rect x="147.221" y="220.105" style="fill:#407BFF;" width="8.594" height="34.23"/>
		<rect x="147.221" y="220.105" style="opacity:0.6;fill:#FFFFFF;enable-background:new    ;" width="8.594" height="34.23"/>
		<rect x="137.381" y="217.518" style="fill:#263238;" width="5.548" height="36.817"/>
		<rect x="142.929" y="217.518" style="fill:#407BFF;" width="4.293" height="36.817"/>
		<rect x="142.929" y="217.518" style="opacity:0.1;enable-background:new    ;" width="4.293" height="36.817"/>
		<rect x="104.797" y="217.518" style="fill:#407BFF;" width="5.548" height="36.817"/>
		<rect x="104.797" y="217.518" style="opacity:0.1;enable-background:new    ;" width="5.548" height="36.817"/>
		<rect x="110.345" y="217.518" style="fill:#407BFF;" width="4.293" height="36.817"/>
		<rect x="110.345" y="217.518" style="opacity:0.6;fill:#FFFFFF;enable-background:new    ;" width="4.293" height="36.817"/>
		<rect x="123.24" y="217.518" style="fill:#407BFF;" width="5.548" height="36.817"/>
		<rect x="123.24" y="217.518" style="opacity:0.6;fill:#FFFFFF;enable-background:new    ;" width="5.548" height="36.817"/>
		<rect x="128.788" y="217.518" style="fill:#407BFF;" width="4.293" height="36.817"/>
		<rect x="128.788" y="217.518" style="opacity:0.1;enable-background:new    ;" width="4.293" height="36.817"/>
		<rect x="96.204" y="218.391" style="fill:#263238;" width="8.593" height="35.943"/>
		<rect x="96.204" y="218.391" style="opacity:0.2;fill:#FFFFFF;" width="8.593" height="35.943"/>
		<rect x="91.911" y="218.391" style="fill:#407BFF;" width="4.293" height="35.943"/>
		<rect x="91.911" y="218.391" style="opacity:0.6;fill:#FFFFFF;enable-background:new    ;" width="4.293" height="35.943"/>
		<rect x="117.505" y="218.391" style="fill:#407BFF;" width="5.726" height="35.943"/>
		<rect x="117.505" y="218.391" style="opacity:0.1;fill:#FFFFFF;enable-background:new    ;" width="5.726" height="35.943"/>
		<rect x="114.638" y="218.391" style="fill:#407BFF;" width="2.867" height="35.943"/>
		<rect x="114.638" y="218.391" style="opacity:0.3;fill:#FFFFFF;enable-background:new    ;" width="2.867" height="35.943"/>
		<rect x="128.779" y="220.105" style="fill:#407BFF;" width="8.594" height="34.23"/>
		<rect x="128.779" y="220.105" style="opacity:0.1;fill:#FFFFFF;enable-background:new    ;" width="8.594" height="34.23"/>
		<rect x="177.294" y="217.518" style="fill:#263238;" width="5.548" height="36.817"/>
		<rect x="182.851" y="217.518" style="fill:#407BFF;" width="4.293" height="36.817"/>
		<rect x="182.851" y="217.518" style="opacity:0.2;fill:#FFFFFF;enable-background:new    ;" width="4.293" height="36.817"/>
		<rect x="168.701" y="218.391" style="fill:#407BFF;" width="8.593" height="35.943"/>
		<rect x="168.701" y="218.391" style="opacity:0.1;fill:#FFFFFF;enable-background:new    ;" width="8.593" height="35.943"/>
		<rect x="164.408" y="218.391" style="fill:#407BFF;" width="4.293" height="35.943"/>
		<rect x="164.408" y="218.391" style="opacity:0.6;fill:#FFFFFF;enable-background:new    ;" width="4.293" height="35.943"/>
		<rect x="190.002" y="218.391" style="fill:#407BFF;" width="5.726" height="35.943"/>
		<rect x="187.135" y="218.391" style="fill:#407BFF;" width="2.867" height="35.943"/>
		<rect x="187.135" y="218.391" style="opacity:0.6;fill:#FFFFFF;enable-background:new    ;" width="2.867" height="35.943"/>
		<rect x="127.558" y="322.2" style="fill:#263238;" width="4.292" height="36.452"/>
		<rect x="123.257" y="322.2" style="fill:#407BFF;" width="4.293" height="36.452"/>
		<rect x="123.257" y="322.2" style="opacity:0.4;fill:#FFFFFF;enable-background:new    ;" width="4.293" height="36.452"/>
		<rect x="131.85" y="324.762" style="fill:#407BFF;" width="8.593" height="33.89"/>
		<rect x="131.85" y="324.762" style="opacity:0.6;fill:#FFFFFF;enable-background:new    ;" width="8.593" height="33.89"/>
		<rect x="144.736" y="322.2" style="fill:#407BFF;" width="5.548" height="36.452"/>
		<rect x="140.443" y="322.2" style="fill:#407BFF;" width="4.292" height="36.452"/>
		<rect x="140.443" y="322.2" style="opacity:0.6;fill:#FFFFFF;enable-background:new    ;" width="4.292" height="36.452"/>
		<rect x="177.32" y="322.2" style="fill:#407BFF;" width="5.548" height="36.452"/>
		<rect x="177.32" y="322.2" style="opacity:0.3;fill:#FFFFFF;enable-background:new    ;" width="5.548" height="36.452"/>
		<rect x="173.027" y="322.2" style="fill:#407BFF;" width="4.293" height="36.452"/>
		<rect x="173.027" y="322.2" style="opacity:0.6;fill:#FFFFFF;enable-background:new    ;" width="4.293" height="36.452"/>
		<rect x="158.886" y="322.2" style="fill:#263238;" width="5.548" height="36.452"/>
		<rect x="154.585" y="322.2" style="fill:#407BFF;" width="4.293" height="36.452"/>
		<rect x="154.585" y="322.2" style="opacity:0.1;enable-background:new    ;" width="4.293" height="36.452"/>
		<rect x="182.876" y="323.056" style="fill:#407BFF;" width="8.594" height="35.595"/>
		<rect x="182.876" y="323.056" style="opacity:0.1;fill:#FFFFFF;enable-background:new    ;" width="8.594" height="35.595"/>
		<rect x="191.461" y="323.056" style="fill:#407BFF;" width="4.293" height="35.595"/>
		<rect x="191.461" y="323.056" style="opacity:0.6;fill:#FFFFFF;enable-background:new    ;" width="4.293" height="35.595"/>
		<rect x="164.434" y="323.056" style="fill:#407BFF;" width="5.726" height="35.595"/>
		<rect x="164.434" y="323.056" style="opacity:0.4;fill:#FFFFFF;enable-background:new    ;" width="5.726" height="35.595"/>
		<rect x="170.16" y="323.056" style="fill:#407BFF;" width="2.867" height="35.595"/>
		<rect x="170.16" y="323.056" style="opacity:0.3;fill:#FFFFFF;enable-background:new    ;" width="2.867" height="35.595"/>
		<rect x="150.284" y="324.762" style="fill:#407BFF;" width="8.594" height="33.89"/>
		<rect x="150.284" y="324.762" style="opacity:0.3;fill:#FFFFFF;enable-background:new    ;" width="8.594" height="33.89"/>
		<rect x="104.823" y="322.2" style="fill:#407BFF;" width="5.548" height="36.452"/>
		<rect x="104.823" y="322.2" style="opacity:0.1;enable-background:new    ;" width="5.548" height="36.452"/>
		<rect x="100.522" y="322.2" style="fill:#263238;" width="4.293" height="36.452"/>
		<rect x="110.371" y="323.056" style="fill:#263238;" width="8.593" height="35.595"/>
		<rect x="110.371" y="323.056" style="opacity:0.5;fill:#FFFFFF;" width="8.593" height="35.595"/>
		<rect x="118.973" y="323.056" style="fill:#407BFF;" width="4.293" height="35.595"/>
		<rect x="118.973" y="323.056" style="opacity:0.6;fill:#FFFFFF;enable-background:new    ;" width="4.293" height="35.595"/>
		<rect x="91.937" y="323.056" style="fill:#407BFF;" width="5.726" height="35.595"/>
		<rect x="91.937" y="323.056" style="opacity:0.1;fill:#FFFFFF;enable-background:new    ;" width="5.726" height="35.595"/>
		<rect x="97.663" y="323.056" style="fill:#407BFF;" width="2.867" height="35.595"/>
		<rect x="97.663" y="323.056" style="opacity:0.6;fill:#FFFFFF;enable-background:new    ;" width="2.867" height="35.595"/>
		<rect x="127.523" y="374.821" style="fill:#263238;" width="4.293" height="36.002"/>
		<rect x="127.523" y="374.821" style="opacity:0.5;fill:#FFFFFF;" width="4.293" height="36.002"/>
		<rect x="123.24" y="374.821" style="fill:#407BFF;" width="4.293" height="36.002"/>
		<rect x="123.24" y="374.821" style="opacity:0.4;fill:#FFFFFF;enable-background:new    ;" width="4.293" height="36.002"/>
		<rect x="131.816" y="377.357" style="fill:#407BFF;" width="8.594" height="33.466"/>
		<rect x="131.816" y="377.357" style="opacity:0.6;fill:#FFFFFF;enable-background:new    ;" width="8.594" height="33.466"/>
		<rect x="144.71" y="374.821" style="fill:#407BFF;" width="5.548" height="36.002"/>
		<rect x="140.418" y="374.821" style="fill:#407BFF;" width="4.293" height="36.002"/>
		<rect x="140.418" y="374.821" style="opacity:0.1;enable-background:new    ;" width="4.293" height="36.002"/>
		<rect x="177.294" y="374.821" style="fill:#407BFF;" width="5.548" height="36.002"/>
		<rect x="177.294" y="374.821" style="opacity:0.4;fill:#FFFFFF;enable-background:new    ;" width="5.548" height="36.002"/>
		<rect x="172.993" y="374.821" style="fill:#407BFF;" width="4.292" height="36.002"/>
		<rect x="172.993" y="374.821" style="opacity:0.6;fill:#FFFFFF;enable-background:new    ;" width="4.292" height="36.002"/>
		<rect x="158.852" y="374.821" style="fill:#263238;" width="5.548" height="36.002"/>
		<rect x="154.559" y="374.821" style="fill:#407BFF;" width="4.293" height="36.002"/>
		<rect x="154.559" y="374.821" style="opacity:0.1;enable-background:new    ;" width="4.293" height="36.002"/>
		<rect x="182.842" y="375.686" style="fill:#407BFF;" width="8.594" height="35.146"/>
		<rect x="182.842" y="375.686" style="opacity:0.2;fill:#FFFFFF;enable-background:new    ;" width="8.594" height="35.146"/>
		<rect x="191.436" y="375.686" style="fill:#407BFF;" width="4.292" height="35.146"/>
		<rect x="191.436" y="375.686" style="opacity:0.6;fill:#FFFFFF;enable-background:new    ;" width="4.292" height="35.146"/>
		<rect x="164.4" y="375.686" style="fill:#407BFF;" width="5.726" height="35.146"/>
		<rect x="164.4" y="375.686" style="opacity:0.3;fill:#FFFFFF;enable-background:new    ;" width="5.726" height="35.146"/>
		<rect x="170.134" y="375.686" style="fill:#407BFF;" width="2.867" height="35.146"/>
		<rect x="170.134" y="375.686" style="opacity:0.3;fill:#FFFFFF;enable-background:new    ;" width="2.867" height="35.146"/>
		<rect x="150.267" y="377.357" style="fill:#407BFF;" width="8.593" height="33.466"/>
		<rect x="150.267" y="377.357" style="opacity:0.5;fill:#FFFFFF;enable-background:new    ;" width="8.593" height="33.466"/>
		<rect x="104.789" y="374.821" style="fill:#407BFF;" width="5.548" height="36.002"/>
		<rect x="104.789" y="374.821" style="opacity:0.1;enable-background:new    ;" width="5.548" height="36.002"/>
		<rect x="100.505" y="374.821" style="fill:#407BFF;" width="4.292" height="36.002"/>
		<rect x="100.505" y="374.821" style="opacity:0.2;fill:#FFFFFF;enable-background:new    ;" width="4.292" height="36.002"/>
		<rect x="110.345" y="375.686" style="fill:#263238;" width="8.594" height="35.146"/>
		<rect x="118.939" y="375.686" style="fill:#407BFF;" width="4.293" height="35.146"/>
		<rect x="118.939" y="375.686" style="opacity:0.6;fill:#FFFFFF;enable-background:new    ;" width="4.293" height="35.146"/>
		<rect x="91.903" y="375.686" style="fill:#407BFF;" width="5.726" height="35.146"/>
		<rect x="91.903" y="375.686" style="opacity:0.3;fill:#FFFFFF;enable-background:new    ;" width="5.726" height="35.146"/>
		<rect x="97.637" y="375.686" style="fill:#407BFF;" width="2.867" height="35.146"/>
		<rect x="97.637" y="375.686" style="opacity:0.6;fill:#FFFFFF;enable-background:new    ;" width="2.867" height="35.146"/>
		<rect x="157.978" y="269.061" style="fill:#407BFF;" width="4.437" height="37.419"/>
		<rect x="157.978" y="269.061" style="opacity:0.5;fill:#FFFFFF;enable-background:new    ;" width="4.437" height="37.419"/>
		<rect x="162.423" y="269.061" style="fill:#407BFF;" width="4.437" height="37.419"/>
		<rect x="162.423" y="269.061" style="opacity:0.4;fill:#FFFFFF;enable-background:new    ;" width="4.437" height="37.419"/>
		<rect x="149.096" y="271.691" style="fill:#407BFF;" width="8.882" height="34.79"/>
		<rect x="149.096" y="271.691" style="opacity:0.6;fill:#FFFFFF;enable-background:new    ;" width="8.882" height="34.79"/>
		<rect x="138.908" y="269.061" style="fill:#263238;" width="5.743" height="37.419"/>
		<rect x="138.908" y="269.061" style="opacity:0.2;fill:#FFFFFF;" width="5.743" height="37.419"/>
		<rect x="144.66" y="269.061" style="fill:#407BFF;" width="4.437" height="37.419"/>
		<rect x="144.66" y="269.061" style="opacity:0.3;fill:#FFFFFF;enable-background:new    ;" width="4.437" height="37.419"/>
		<rect x="105.221" y="269.061" style="fill:#407BFF;" width="5.743" height="37.419"/>
		<rect x="105.221" y="269.061" style="opacity:0.1;enable-background:new    ;" width="5.743" height="37.419"/>
		<rect x="110.973" y="269.061" style="fill:#407BFF;" width="4.437" height="37.419"/>
		<rect x="110.973" y="269.061" style="opacity:0.6;fill:#FFFFFF;enable-background:new    ;" width="4.437" height="37.419"/>
		<rect x="124.291" y="269.061" style="fill:#407BFF;" width="5.743" height="37.419"/>
		<rect x="124.291" y="269.061" style="opacity:0.6;fill:#FFFFFF;enable-background:new    ;" width="5.743" height="37.419"/>
		<rect x="130.035" y="269.061" style="fill:#407BFF;" width="4.437" height="37.419"/>
		<rect x="130.035" y="269.061" style="opacity:0.1;enable-background:new    ;" width="4.437" height="37.419"/>
		<rect x="96.348" y="269.952" style="fill:#263238;" width="8.882" height="36.537"/>
		<rect x="96.348" y="269.952" style="opacity:0.5;fill:#FFFFFF;" width="8.882" height="36.537"/>
		<rect x="91.911" y="269.952" style="fill:#407BFF;" width="4.437" height="36.537"/>
		<rect x="91.911" y="269.952" style="opacity:0.6;fill:#FFFFFF;enable-background:new    ;" width="4.437" height="36.537"/>
		<rect x="118.37" y="269.952" style="fill:#407BFF;" width="5.921" height="36.537"/>
		<rect x="118.37" y="269.952" style="opacity:0.3;fill:#FFFFFF;enable-background:new    ;" width="5.921" height="36.537"/>
		<rect x="115.41" y="269.952" style="fill:#407BFF;" width="2.961" height="36.537"/>
		<rect x="115.41" y="269.952" style="opacity:0.3;fill:#FFFFFF;enable-background:new    ;" width="2.961" height="36.537"/>
		<rect x="130.035" y="271.691" style="fill:#407BFF;" width="8.882" height="34.79"/>
		<rect x="130.035" y="271.691" style="opacity:0.4;fill:#FFFFFF;enable-background:new    ;" width="8.882" height="34.79"/>
		<rect x="180.178" y="269.061" style="fill:#407BFF;" width="5.743" height="37.419"/>
		<rect x="180.178" y="269.061" style="opacity:0.4;fill:#FFFFFF;enable-background:new    ;" width="5.743" height="37.419"/>
		<rect x="185.922" y="269.061" style="fill:#407BFF;" width="4.437" height="37.419"/>
		<rect x="185.922" y="269.061" style="opacity:0.2;fill:#FFFFFF;enable-background:new    ;" width="4.437" height="37.419"/>
		<rect x="171.297" y="269.952" style="fill:#407BFF;" width="8.882" height="36.537"/>
		<rect x="171.297" y="269.952" style="opacity:0.3;fill:#FFFFFF;enable-background:new    ;" width="8.882" height="36.537"/>
		<rect x="166.86" y="269.952" style="fill:#407BFF;" width="4.437" height="36.537"/>
		<rect x="166.86" y="269.952" style="opacity:0.6;fill:#FFFFFF;enable-background:new    ;" width="4.437" height="36.537"/>
		<rect x="193.319" y="269.952" style="fill:#407BFF;" width="5.921" height="36.537"/>
		<rect x="193.319" y="269.952" style="opacity:0.5;fill:#FFFFFF;enable-background:new    ;" width="5.921" height="36.537"/>
		<rect x="190.358" y="269.952" style="fill:#407BFF;" width="2.961" height="36.537"/>
		<rect x="190.358" y="269.952" style="opacity:0.6;fill:#FFFFFF;enable-background:new    ;" width="2.961" height="36.537"/>
	</g>
</g>
<g id="Table">
	<g>
		<g>
			<g>
				<rect x="163.84" y="302.155" style="fill:#407BFF;" width="56.769" height="111.92"/>
				<rect x="163.84" y="302.155" style="opacity:0.8;fill:#FFFFFF;" width="56.769" height="111.92"/>
				<rect x="220.79" y="302.155" style="fill:#407BFF;" width="64.927" height="111.92"/>
			</g>
			<rect x="220.79" y="302.155" style="opacity:0.5;fill:#FFFFFF;" width="64.927" height="111.92"/>
			<g>
				<path style="fill:#407BFF;" d="M215.609,332.35v-20.731c-2.466,0-4.464-1.999-4.464-4.465h-37.797
					c0,2.466-1.999,4.465-4.465,4.465l0,0v20.731l0,0c2.465,0,4.465,1.999,4.465,4.465h37.797
					C211.145,334.349,213.144,332.35,215.609,332.35z"/>
				<path style="opacity:0.6;fill:#FFFFFF;" d="M215.609,332.35v-20.731c-2.466,0-4.464-1.999-4.464-4.465h-37.797
					c0,2.466-1.999,4.465-4.465,4.465l0,0v20.731l0,0c2.465,0,4.465,1.999,4.465,4.465h37.797
					C211.145,334.349,213.144,332.35,215.609,332.35z"/>
				<path style="fill:#407BFF;" d="M171.134,332.35v-20.731c2.465,0,4.465-1.999,4.465-4.465h-2.25c0,2.466-1.999,4.465-4.465,4.465
					v20.731c2.465,0,4.465,1.999,4.465,4.465h2.25C175.598,334.349,173.599,332.35,171.134,332.35z"/>
				<path style="opacity:0.2;fill:#FFFFFF;" d="M171.134,332.35v-20.731c2.465,0,4.465-1.999,4.465-4.465h-2.25
					c0,2.466-1.999,4.465-4.465,4.465v20.731c2.465,0,4.465,1.999,4.465,4.465h2.25C175.598,334.349,173.599,332.35,171.134,332.35z
					"/>
				<path style="fill:#407BFF;" d="M187.498,321.984c0,1.26-1.021,2.281-2.281,2.281c-1.26,0-2.281-1.021-2.281-2.281
					c0-1.26,1.021-2.281,2.281-2.281C186.477,319.703,187.498,320.724,187.498,321.984z"/>
				<path style="fill:#407BFF;" d="M199.476,321.984c0,1.26-1.021,2.281-2.281,2.281c-1.26,0-2.281-1.021-2.281-2.281
					c0-1.26,1.021-2.281,2.281-2.281C198.454,319.703,199.476,320.724,199.476,321.984z"/>
				<polygon style="fill:#263238;" points="185.63,314.983 193.458,307.154 177.801,307.154 				"/>
				<polygon style="opacity:0.7;fill:#FFFFFF;" points="185.63,314.983 193.458,307.154 177.801,307.154 				"/>
				<polygon style="fill:#263238;" points="193.271,312.983 199.1,307.154 187.442,307.154 				"/>
				<polygon style="opacity:0.8;fill:#FFFFFF;" points="193.271,312.983 199.1,307.154 187.442,307.154 				"/>
				<g>
					<path style="fill:#263238;" d="M195.235,328.805h-7.977c-1.564,0-2.832-1.268-2.832-2.832v-4.138c0-0.47,0.381-0.85,0.85-0.85
						l0,0c0.469,0,0.85,0.381,0.85,0.85v4.139c0,0.625,0.507,1.132,1.132,1.132h7.976c0.625,0,1.132-0.507,1.132-1.132v-4.139
						c0-0.47,0.381-0.85,0.85-0.85l0,0c0.469,0,0.85,0.381,0.85,0.85v4.138C198.067,327.537,196.799,328.805,195.235,328.805z"/>
				</g>
			</g>
			<g>
				<path style="fill:#407BFF;" d="M215.609,368.48v-20.731c-2.466,0-4.464-1.999-4.464-4.465h-37.797
					c0,2.466-1.999,4.465-4.465,4.465l0,0v20.731l0,0c2.465,0,4.465,1.999,4.465,4.465h37.797
					C211.145,370.478,213.144,368.48,215.609,368.48z"/>
				<path style="opacity:0.6;fill:#FFFFFF;" d="M215.609,368.48v-20.731c-2.466,0-4.464-1.999-4.464-4.465h-37.797
					c0,2.466-1.999,4.465-4.465,4.465l0,0v20.731l0,0c2.465,0,4.465,1.999,4.465,4.465h37.797
					C211.145,370.478,213.144,368.48,215.609,368.48z"/>
				<path style="fill:#407BFF;" d="M171.134,368.48v-20.731c2.465,0,4.465-1.999,4.465-4.465h-2.25c0,2.466-1.999,4.465-4.465,4.465
					v20.731c2.465,0,4.465,1.999,4.465,4.465h2.25C175.598,370.478,173.599,368.48,171.134,368.48z"/>
				<path style="opacity:0.2;fill:#FFFFFF;" d="M171.134,368.48v-20.731c2.465,0,4.465-1.999,4.465-4.465h-2.25
					c0,2.466-1.999,4.465-4.465,4.465v20.731c2.465,0,4.465,1.999,4.465,4.465h2.25C175.598,370.478,173.599,368.48,171.134,368.48z
					"/>
				<path style="fill:#407BFF;" d="M187.498,358.114c0,1.26-1.021,2.281-2.281,2.281c-1.26,0-2.281-1.021-2.281-2.281
					c0-1.26,1.021-2.281,2.281-2.281C186.477,355.833,187.498,356.854,187.498,358.114z"/>
				<path style="fill:#407BFF;" d="M199.476,358.114c0,1.26-1.021,2.281-2.281,2.281c-1.26,0-2.281-1.021-2.281-2.281
					c0-1.26,1.021-2.281,2.281-2.281C198.454,355.833,199.476,356.854,199.476,358.114z"/>
				<g>
					<path style="fill:#263238;" d="M195.235,364.935h-7.977c-1.564,0-2.832-1.268-2.832-2.832v-4.138c0-0.47,0.381-0.85,0.85-0.85
						l0,0c0.469,0,0.85,0.381,0.85,0.85v4.139c0,0.625,0.507,1.132,1.132,1.132h7.976c0.625,0,1.132-0.507,1.132-1.132v-4.139
						c0-0.47,0.381-0.85,0.85-0.85l0,0c0.469,0,0.85,0.381,0.85,0.85v4.138C198.067,363.667,196.799,364.935,195.235,364.935z"/>
				</g>
			</g>
			<g>
				<path style="fill:#407BFF;" d="M215.609,404.61v-20.731c-2.466,0-4.464-1.999-4.464-4.465h-37.797
					c0,2.466-1.999,4.465-4.465,4.465l0,0v20.731l0,0c2.465,0,4.465,1.999,4.465,4.464h37.797
					C211.145,406.608,213.144,404.61,215.609,404.61z"/>
				<path style="opacity:0.6;fill:#FFFFFF;" d="M215.609,404.61v-20.731c-2.466,0-4.464-1.999-4.464-4.465h-37.797
					c0,2.466-1.999,4.465-4.465,4.465l0,0v20.731l0,0c2.465,0,4.465,1.999,4.465,4.464h37.797
					C211.145,406.608,213.144,404.61,215.609,404.61z"/>
				<path style="fill:#407BFF;" d="M171.134,404.61v-20.731c2.465,0,4.465-1.999,4.465-4.465h-2.25c0,2.466-1.999,4.465-4.465,4.465
					v20.731c2.465,0,4.465,1.999,4.465,4.464h2.25C175.598,406.608,173.599,404.61,171.134,404.61z"/>
				<path style="opacity:0.2;fill:#FFFFFF;" d="M171.134,404.61v-20.731c2.465,0,4.465-1.999,4.465-4.465h-2.25
					c0,2.466-1.999,4.465-4.465,4.465v20.731c2.465,0,4.465,1.999,4.465,4.464h2.25C175.598,406.608,173.599,404.61,171.134,404.61z
					"/>
				<path style="fill:#407BFF;" d="M187.498,394.244c0,1.26-1.021,2.281-2.281,2.281c-1.26,0-2.281-1.021-2.281-2.281
					c0-1.26,1.021-2.281,2.281-2.281C186.477,391.963,187.498,392.984,187.498,394.244z"/>
				<path style="fill:#407BFF;" d="M199.476,394.244c0,1.26-1.021,2.281-2.281,2.281c-1.26,0-2.281-1.021-2.281-2.281
					c0-1.26,1.021-2.281,2.281-2.281C198.454,391.963,199.476,392.984,199.476,394.244z"/>
				<g>
					<path style="fill:#263238;" d="M195.235,401.065h-7.977c-1.564,0-2.832-1.268-2.832-2.832v-4.138c0-0.47,0.381-0.85,0.85-0.85
						l0,0c0.469,0,0.85,0.381,0.85,0.85v4.139c0,0.625,0.507,1.132,1.132,1.132h7.976c0.625,0,1.132-0.507,1.132-1.132v-4.139
						c0-0.47,0.381-0.85,0.85-0.85l0,0c0.469,0,0.85,0.381,0.85,0.85v4.138C198.067,399.797,196.799,401.065,195.235,401.065z"/>
				</g>
			</g>
			<g>
				<polygon style="fill:#263238;" points="181.63,387.655 194.13,379.154 177.129,379.154 				"/>
				<polygon style="opacity:0.8;fill:#FFFFFF;" points="181.63,387.655 194.13,379.154 177.129,379.154 				"/>
			</g>
		</g>
		<rect x="156.84" y="294.595" style="fill:none;" width="276.547" height="7.56"/>
		<rect x="156.84" y="294.595" style="fill:#407BFF;" width="276.547" height="7.56"/>
		<rect x="156.84" y="294.595" style="fill:#407BFF;" width="196.723" height="7.56"/>
		<rect x="156.84" y="294.595" style="opacity:0.3;fill:#FFFFFF;" width="196.723" height="7.56"/>
		<g>
			<g>
				<rect x="296.614" y="302.155" style="fill:#407BFF;" width="56.769" height="111.92"/>
				<rect x="296.614" y="302.155" style="opacity:0.8;fill:#FFFFFF;" width="56.769" height="111.92"/>
				<rect x="353.564" y="302.155" style="fill:#407BFF;" width="71.927" height="111.92"/>
			</g>
			<rect x="353.564" y="302.155" style="opacity:0.5;fill:#FFFFFF;" width="71.927" height="111.92"/>
			<g>
				<path style="fill:#407BFF;" d="M348.383,332.35v-20.731c-2.466,0-4.464-1.999-4.464-4.465h-37.797
					c0,2.466-1.999,4.465-4.465,4.465l0,0v20.731l0,0c2.465,0,4.465,1.999,4.465,4.465h37.797
					C343.918,334.349,345.917,332.35,348.383,332.35z"/>
				<path style="opacity:0.6;fill:#FFFFFF;" d="M348.383,332.35v-20.731c-2.466,0-4.464-1.999-4.464-4.465h-37.797
					c0,2.466-1.999,4.465-4.465,4.465l0,0v20.731l0,0c2.465,0,4.465,1.999,4.465,4.465h37.797
					C343.918,334.349,345.917,332.35,348.383,332.35z"/>
				<path style="fill:#407BFF;" d="M303.907,332.35v-20.731c2.465,0,4.465-1.999,4.465-4.465h-2.25c0,2.466-1.999,4.465-4.465,4.465
					v20.731c2.465,0,4.465,1.999,4.465,4.465h2.25C308.372,334.349,306.372,332.35,303.907,332.35z"/>
				<path style="opacity:0.2;fill:#FFFFFF;" d="M303.907,332.35v-20.731c2.465,0,4.465-1.999,4.465-4.465h-2.25
					c0,2.466-1.999,4.465-4.465,4.465v20.731c2.465,0,4.465,1.999,4.465,4.465h2.25C308.372,334.349,306.372,332.35,303.907,332.35z
					"/>
				<path style="fill:#407BFF;" d="M320.272,321.984c0,1.26-1.021,2.281-2.281,2.281c-1.26,0-2.281-1.021-2.281-2.281
					c0-1.26,1.021-2.281,2.281-2.281C319.25,319.703,320.272,320.724,320.272,321.984z"/>
				<path style="fill:#407BFF;" d="M332.249,321.984c0,1.26-1.021,2.281-2.281,2.281c-1.26,0-2.281-1.021-2.281-2.281
					c0-1.26,1.021-2.281,2.281-2.281C331.228,319.703,332.249,320.724,332.249,321.984z"/>
				<polygon style="fill:#263238;" points="318.403,314.983 326.231,307.154 310.574,307.154 				"/>
				<polygon style="opacity:0.7;fill:#FFFFFF;" points="318.403,314.983 326.231,307.154 310.574,307.154 				"/>
				<polygon style="fill:#263238;" points="326.044,312.983 331.873,307.154 320.216,307.154 				"/>
				<polygon style="opacity:0.8;fill:#FFFFFF;" points="326.044,312.983 331.873,307.154 320.216,307.154 				"/>
				<g>
					<path style="fill:#263238;" d="M328.008,328.805h-7.977c-1.564,0-2.832-1.268-2.832-2.832v-4.138c0-0.47,0.381-0.85,0.85-0.85
						l0,0c0.469,0,0.85,0.381,0.85,0.85v4.139c0,0.625,0.507,1.132,1.132,1.132h7.976c0.625,0,1.132-0.507,1.132-1.132v-4.139
						c0-0.47,0.381-0.85,0.85-0.85l0,0c0.469,0,0.85,0.381,0.85,0.85v4.138C330.84,327.537,329.572,328.805,328.008,328.805z"/>
				</g>
			</g>
			<g>
				<path style="fill:#407BFF;" d="M348.383,368.48v-20.731c-2.466,0-4.464-1.999-4.464-4.465h-37.797
					c0,2.466-1.999,4.465-4.465,4.465l0,0v20.731l0,0c2.465,0,4.465,1.999,4.465,4.465h37.797
					C343.918,370.478,345.917,368.48,348.383,368.48z"/>
				<path style="opacity:0.6;fill:#FFFFFF;" d="M348.383,368.48v-20.731c-2.466,0-4.464-1.999-4.464-4.465h-37.797
					c0,2.466-1.999,4.465-4.465,4.465l0,0v20.731l0,0c2.465,0,4.465,1.999,4.465,4.465h37.797
					C343.918,370.478,345.917,368.48,348.383,368.48z"/>
				<path style="fill:#407BFF;" d="M303.907,368.48v-20.731c2.465,0,4.465-1.999,4.465-4.465h-2.25c0,2.466-1.999,4.465-4.465,4.465
					v20.731c2.465,0,4.465,1.999,4.465,4.465h2.25C308.372,370.478,306.372,368.48,303.907,368.48z"/>
				<path style="opacity:0.2;fill:#FFFFFF;" d="M303.907,368.48v-20.731c2.465,0,4.465-1.999,4.465-4.465h-2.25
					c0,2.466-1.999,4.465-4.465,4.465v20.731c2.465,0,4.465,1.999,4.465,4.465h2.25C308.372,370.478,306.372,368.48,303.907,368.48z
					"/>
				<path style="fill:#407BFF;" d="M320.272,358.114c0,1.26-1.021,2.281-2.281,2.281c-1.26,0-2.281-1.021-2.281-2.281
					c0-1.26,1.021-2.281,2.281-2.281C319.25,355.833,320.272,356.854,320.272,358.114z"/>
				<path style="fill:#407BFF;" d="M332.249,358.114c0,1.26-1.021,2.281-2.281,2.281c-1.26,0-2.281-1.021-2.281-2.281
					c0-1.26,1.021-2.281,2.281-2.281C331.228,355.833,332.249,356.854,332.249,358.114z"/>
				<g>
					<path style="fill:#263238;" d="M328.008,364.935h-7.977c-1.564,0-2.832-1.268-2.832-2.832v-4.138c0-0.47,0.381-0.85,0.85-0.85
						l0,0c0.469,0,0.85,0.381,0.85,0.85v4.139c0,0.625,0.507,1.132,1.132,1.132h7.976c0.625,0,1.132-0.507,1.132-1.132v-4.139
						c0-0.47,0.381-0.85,0.85-0.85l0,0c0.469,0,0.85,0.381,0.85,0.85v4.138C330.84,363.667,329.572,364.935,328.008,364.935z"/>
				</g>
			</g>
			<g>
				<path style="fill:#407BFF;" d="M348.383,404.61v-20.731c-2.466,0-4.464-1.999-4.464-4.465h-37.797
					c0,2.466-1.999,4.465-4.465,4.465l0,0v20.731l0,0c2.465,0,4.465,1.999,4.465,4.464h37.797
					C343.918,406.608,345.917,404.61,348.383,404.61z"/>
				<path style="opacity:0.6;fill:#FFFFFF;" d="M348.383,404.61v-20.731c-2.466,0-4.464-1.999-4.464-4.465h-37.797
					c0,2.466-1.999,4.465-4.465,4.465l0,0v20.731l0,0c2.465,0,4.465,1.999,4.465,4.464h37.797
					C343.918,406.608,345.917,404.61,348.383,404.61z"/>
				<path style="fill:#407BFF;" d="M303.907,404.61v-20.731c2.465,0,4.465-1.999,4.465-4.465h-2.25c0,2.466-1.999,4.465-4.465,4.465
					v20.731c2.465,0,4.465,1.999,4.465,4.464h2.25C308.372,406.608,306.372,404.61,303.907,404.61z"/>
				<path style="opacity:0.2;fill:#FFFFFF;" d="M303.907,404.61v-20.731c2.465,0,4.465-1.999,4.465-4.465h-2.25
					c0,2.466-1.999,4.465-4.465,4.465v20.731c2.465,0,4.465,1.999,4.465,4.464h2.25C308.372,406.608,306.372,404.61,303.907,404.61z
					"/>
				<path style="fill:#407BFF;" d="M320.272,394.244c0,1.26-1.021,2.281-2.281,2.281c-1.26,0-2.281-1.021-2.281-2.281
					c0-1.26,1.021-2.281,2.281-2.281C319.25,391.963,320.272,392.984,320.272,394.244z"/>
				<path style="fill:#407BFF;" d="M332.249,394.244c0,1.26-1.021,2.281-2.281,2.281c-1.26,0-2.281-1.021-2.281-2.281
					c0-1.26,1.021-2.281,2.281-2.281C331.228,391.963,332.249,392.984,332.249,394.244z"/>
				<g>
					<path style="fill:#263238;" d="M328.008,401.065h-7.977c-1.564,0-2.832-1.268-2.832-2.832v-4.138c0-0.47,0.381-0.85,0.85-0.85
						l0,0c0.469,0,0.85,0.381,0.85,0.85v4.139c0,0.625,0.507,1.132,1.132,1.132h7.976c0.625,0,1.132-0.507,1.132-1.132v-4.139
						c0-0.47,0.381-0.85,0.85-0.85l0,0c0.469,0,0.85,0.381,0.85,0.85v4.138C330.84,399.797,329.572,401.065,328.008,401.065z"/>
				</g>
			</g>
			<g>
				<polygon style="fill:#263238;" points="314.403,387.655 326.903,379.154 309.902,379.154 				"/>
				<polygon style="opacity:0.8;fill:#FFFFFF;" points="314.403,387.655 326.903,379.154 309.902,379.154 				"/>
			</g>
		</g>
	</g>
</g>
<g id="Books_2">
	<g>
		<g>
			<path style="fill:#407BFF;" d="M439.882,395.904h-42.194v8.799h42.209C439.516,401.784,439.511,398.825,439.882,395.904z"/>
			<path style="opacity:0.7;fill:#FFFFFF;" d="M439.882,395.904h-42.194v8.799h42.209
				C439.516,401.784,439.511,398.825,439.882,395.904z"/>
			<g>
				<path style="fill:#407BFF;" d="M405.377,405.166h-13.262l-0.135-0.136c-1.277-1.277-1.981-2.976-1.981-4.782
					c0-1.806,0.703-3.505,1.981-4.782l0.135-0.136h13.262l-0.791,0.79c-1.103,1.102-1.71,2.568-1.71,4.127
					c0,1.559,0.607,3.025,1.71,4.127L405.377,405.166z"/>
			</g>
			<g style="opacity:0.3;">
				<path d="M405.377,405.166h-13.262l-0.135-0.136c-1.277-1.277-1.981-2.976-1.981-4.782c0-1.806,0.703-3.505,1.981-4.782
					l0.135-0.136h13.262l-0.791,0.79c-1.103,1.102-1.71,2.568-1.71,4.127c0,1.559,0.607,3.025,1.71,4.127L405.377,405.166z"/>
			</g>
			<g>
				<path style="fill:#407BFF;" d="M440.315,405.166h-35.818l-0.038-0.038c-1.238-1.239-2.014-2.888-2.074-4.638
					c-0.066-1.896,0.642-3.69,1.977-5.024l0.135-0.136h35.818c0.256,0,0.463,0.207,0.463,0.463l0,0c0,0.256-0.207,0.463-0.463,0.463
					h-35.43c-1.019,1.086-1.578,2.496-1.578,3.992s0.559,2.906,1.578,3.992h35.43c0.256,0,0.463,0.207,0.463,0.463l0,0
					C440.778,404.959,440.571,405.166,440.315,405.166z"/>
			</g>
		</g>
		<g>
			<path style="fill:#407BFF;" d="M437.017,378.143h-37.975v7.919h37.988C436.688,383.434,436.683,380.772,437.017,378.143z"/>
			<path style="opacity:0.8;fill:#FFFFFF;" d="M437.017,378.143h-37.975v7.919h37.988
				C436.688,383.434,436.683,380.772,437.017,378.143z"/>
			<g>
				<path style="fill:#407BFF;" d="M405.962,386.479h-11.936l-0.122-0.122c-1.15-1.15-1.783-2.678-1.783-4.304
					s0.633-3.154,1.783-4.304l0.122-0.122h11.936l-0.712,0.711c-0.992,0.992-1.539,2.311-1.539,3.715
					c0,1.403,0.546,2.722,1.539,3.715L405.962,386.479z"/>
			</g>
			<g style="opacity:0.2;">
				<path style="fill:#FFFFFF;" d="M405.962,386.479h-11.936l-0.122-0.122c-1.15-1.15-1.783-2.678-1.783-4.304
					s0.633-3.154,1.783-4.304l0.122-0.122h11.936l-0.712,0.711c-0.992,0.992-1.539,2.311-1.539,3.715
					c0,1.403,0.546,2.722,1.539,3.715L405.962,386.479z"/>
			</g>
			<g>
				<path style="fill:#407BFF;" d="M437.407,386.479h-32.236l-0.034-0.034c-1.114-1.115-1.812-2.599-1.867-4.174
					c-0.059-1.707,0.578-3.321,1.779-4.522l0.122-0.122h32.236c0.23,0,0.417,0.187,0.417,0.417l0,0c0,0.23-0.187,0.417-0.417,0.417
					H405.52c-0.917,0.977-1.421,2.246-1.421,3.592c0,1.346,0.503,2.615,1.421,3.592h31.887c0.23,0,0.417,0.187,0.417,0.417l0,0
					C437.824,386.292,437.637,386.479,437.407,386.479z"/>
			</g>
			<g style="opacity:0.4;">
				<path style="fill:#FFFFFF;" d="M437.407,386.479h-32.236l-0.034-0.034c-1.114-1.115-1.812-2.599-1.867-4.174
					c-0.059-1.707,0.578-3.321,1.779-4.522l0.122-0.122h32.236c0.23,0,0.417,0.187,0.417,0.417l0,0c0,0.23-0.187,0.417-0.417,0.417
					H405.52c-0.917,0.977-1.421,2.246-1.421,3.592c0,1.346,0.503,2.615,1.421,3.592h31.887c0.23,0,0.417,0.187,0.417,0.417l0,0
					C437.824,386.292,437.637,386.479,437.407,386.479z"/>
			</g>
		</g>
		<g>
			<path style="fill:#407BFF;" d="M437.017,369.291h-37.975v7.919h37.988C436.688,374.582,436.683,371.919,437.017,369.291z"/>
			<path style="opacity:0.8;fill:#FFFFFF;" d="M437.017,369.291h-37.975v7.919h37.988
				C436.688,374.582,436.683,371.919,437.017,369.291z"/>
			<g>
				<path style="fill:#407BFF;" d="M405.962,377.627h-11.936l-0.122-0.122c-1.15-1.15-1.783-2.678-1.783-4.304
					c0-1.626,0.633-3.154,1.783-4.304l0.122-0.122h11.936l-0.712,0.712c-0.992,0.992-1.539,2.311-1.539,3.714
					c0,1.403,0.546,2.722,1.539,3.715L405.962,377.627z"/>
			</g>
			<g style="opacity:0.4;">
				<path style="fill:#FFFFFF;" d="M405.962,377.627h-11.936l-0.122-0.122c-1.15-1.15-1.783-2.678-1.783-4.304
					c0-1.626,0.633-3.154,1.783-4.304l0.122-0.122h11.936l-0.712,0.712c-0.992,0.992-1.539,2.311-1.539,3.714
					c0,1.403,0.546,2.722,1.539,3.715L405.962,377.627z"/>
			</g>
			<g>
				<path style="fill:#407BFF;" d="M437.407,377.627h-32.236l-0.034-0.034c-1.114-1.115-1.812-2.599-1.867-4.174
					c-0.059-1.707,0.578-3.321,1.779-4.522l0.122-0.122h32.236c0.23,0,0.417,0.187,0.417,0.417l0,0c0,0.23-0.187,0.417-0.417,0.417
					H405.52c-0.917,0.977-1.421,2.246-1.421,3.592c0,1.346,0.503,2.616,1.421,3.592h31.887c0.23,0,0.417,0.187,0.417,0.417l0,0
					C437.824,377.44,437.637,377.627,437.407,377.627z"/>
			</g>
			<g style="opacity:0.5;">
				<path style="fill:#FFFFFF;" d="M437.407,377.627h-32.236l-0.034-0.034c-1.114-1.115-1.812-2.599-1.867-4.174
					c-0.059-1.707,0.578-3.321,1.779-4.522l0.122-0.122h32.236c0.23,0,0.417,0.187,0.417,0.417l0,0c0,0.23-0.187,0.417-0.417,0.417
					H405.52c-0.917,0.977-1.421,2.246-1.421,3.592c0,1.346,0.503,2.616,1.421,3.592h31.887c0.23,0,0.417,0.187,0.417,0.417l0,0
					C437.824,377.44,437.637,377.627,437.407,377.627z"/>
			</g>
		</g>
		<g>
			<path style="fill:#407BFF;" d="M437.017,405.736h-37.975v7.919h37.988C436.688,411.027,436.683,408.364,437.017,405.736z"/>
			<path style="opacity:0.8;fill:#FFFFFF;" d="M437.017,405.736h-37.975v7.919h37.988
				C436.688,411.027,436.683,408.364,437.017,405.736z"/>
			<g>
				<path style="fill:#263238;" d="M405.962,414.072h-11.936l-0.122-0.122c-1.15-1.15-1.783-2.678-1.783-4.304
					s0.633-3.154,1.783-4.304l0.122-0.122h11.936l-0.712,0.711c-0.992,0.992-1.539,2.311-1.539,3.715
					c0,1.403,0.546,2.722,1.539,3.715L405.962,414.072z"/>
			</g>
			<g>
				<path style="fill:#407BFF;" d="M437.407,414.072h-32.236l-0.034-0.034c-1.114-1.115-1.812-2.599-1.867-4.174
					c-0.059-1.707,0.578-3.321,1.779-4.522l0.122-0.122h32.236c0.23,0,0.417,0.187,0.417,0.417l0,0c0,0.23-0.187,0.417-0.417,0.417
					H405.52c-0.917,0.977-1.421,2.246-1.421,3.592c0,1.346,0.503,2.615,1.421,3.592h31.887c0.23,0,0.417,0.187,0.417,0.417l0,0
					C437.824,413.885,437.637,414.072,437.407,414.072z"/>
			</g>
		</g>
		<g>
			<path style="fill:#407BFF;" d="M437.017,386.995h-37.975v7.919h37.988C436.688,392.286,436.683,389.624,437.017,386.995z"/>
			<path style="opacity:0.7;fill:#FFFFFF;" d="M437.017,386.995h-37.975v7.919h37.988
				C436.688,392.286,436.683,389.624,437.017,386.995z"/>
			<g>
				<path style="fill:#407BFF;" d="M405.962,395.331h-11.936l-0.122-0.122c-1.15-1.15-1.783-2.678-1.783-4.304
					c0-1.626,0.633-3.154,1.783-4.304l0.122-0.122h11.936l-0.712,0.711c-0.992,0.992-1.539,2.311-1.539,3.715
					c0,1.403,0.546,2.722,1.539,3.715L405.962,395.331z"/>
			</g>
			<g>
				<path style="fill:#407BFF;" d="M437.407,395.331h-32.236l-0.034-0.034c-1.114-1.115-1.812-2.599-1.867-4.174
					c-0.059-1.707,0.578-3.321,1.779-4.522l0.122-0.122h32.236c0.23,0,0.417,0.187,0.417,0.417l0,0c0,0.23-0.187,0.417-0.417,0.417
					H405.52c-0.917,0.977-1.42,2.246-1.42,3.592c0,1.346,0.503,2.616,1.42,3.592h31.887c0.23,0,0.417,0.187,0.417,0.417l0,0
					C437.824,395.144,437.637,395.331,437.407,395.331z"/>
			</g>
			<g style="opacity:0.3;">
				<path style="fill:#FFFFFF;" d="M437.407,395.331h-32.236l-0.034-0.034c-1.114-1.115-1.812-2.599-1.867-4.174
					c-0.059-1.707,0.578-3.321,1.779-4.522l0.122-0.122h32.236c0.23,0,0.417,0.187,0.417,0.417l0,0c0,0.23-0.187,0.417-0.417,0.417
					H405.52c-0.917,0.977-1.42,2.246-1.42,3.592c0,1.346,0.503,2.616,1.42,3.592h31.887c0.23,0,0.417,0.187,0.417,0.417l0,0
					C437.824,395.144,437.637,395.331,437.407,395.331z"/>
			</g>
		</g>
	</g>
</g>
<g id="Books_1">
	<g>
		<g>
			<path style="fill:#407BFF;" d="M363.042,294.207h38.387v-8.005h-38.4C363.375,288.858,363.379,291.549,363.042,294.207z"/>
			<path style="opacity:0.7;fill:#FFFFFF;" d="M363.042,294.207h38.387v-8.005h-38.4
				C363.375,288.858,363.379,291.549,363.042,294.207z"/>
			<g>
				<path style="fill:#407BFF;" d="M394.434,285.78h12.065l0.123,0.123c1.162,1.162,1.802,2.707,1.802,4.351
					c0,1.643-0.64,3.189-1.802,4.351l-0.123,0.123h-12.065l0.719-0.719c1.003-1.003,1.555-2.336,1.555-3.755
					c0-1.418-0.552-2.752-1.555-3.755L394.434,285.78z"/>
			</g>
			<g style="opacity:0.3;">
				<path d="M394.434,285.78h12.065l0.123,0.123c1.162,1.162,1.802,2.707,1.802,4.351c0,1.643-0.64,3.189-1.802,4.351l-0.123,0.123
					h-12.065l0.719-0.719c1.003-1.003,1.555-2.336,1.555-3.755c0-1.418-0.552-2.752-1.555-3.755L394.434,285.78z"/>
			</g>
			<g>
				<path style="fill:#407BFF;" d="M362.648,285.78h32.586l0.035,0.034c1.126,1.127,1.832,2.627,1.887,4.219
					c0.06,1.725-0.584,3.357-1.798,4.571l-0.123,0.123h-32.586c-0.233,0-0.421-0.189-0.421-0.421l0,0
					c0-0.233,0.189-0.421,0.421-0.421h32.233c0.927-0.988,1.436-2.271,1.436-3.631c0-1.361-0.509-2.644-1.436-3.632h-32.233
					c-0.233,0-0.421-0.189-0.421-0.421l0,0C362.227,285.969,362.415,285.78,362.648,285.78z"/>
			</g>
		</g>
		<g>
			<path style="fill:#407BFF;" d="M364.06,269.204h34.548V262h-34.56C364.359,264.39,364.363,266.813,364.06,269.204z"/>
			<path style="opacity:0.8;fill:#FFFFFF;" d="M364.06,269.204h34.548V262h-34.56C364.359,264.39,364.363,266.813,364.06,269.204z"
				/>
			<g>
				<path style="fill:#407BFF;" d="M392.312,261.62h10.859l0.111,0.111c1.046,1.046,1.622,2.436,1.622,3.916
					c0,1.479-0.576,2.87-1.622,3.915l-0.111,0.111h-10.859l0.647-0.647c0.903-0.903,1.4-2.103,1.4-3.379
					c0-1.277-0.497-2.477-1.4-3.379L392.312,261.62z"/>
			</g>
			<g style="opacity:0.2;">
				<path style="fill:#FFFFFF;" d="M392.312,261.62h10.859l0.111,0.111c1.046,1.046,1.622,2.436,1.622,3.916
					c0,1.479-0.576,2.87-1.622,3.915l-0.111,0.111h-10.859l0.647-0.647c0.903-0.903,1.4-2.103,1.4-3.379
					c0-1.277-0.497-2.477-1.4-3.379L392.312,261.62z"/>
			</g>
			<g>
				<path style="fill:#407BFF;" d="M363.705,261.62h29.327l0.031,0.031c1.013,1.014,1.649,2.364,1.698,3.797
					c0.054,1.553-0.526,3.021-1.618,4.114l-0.111,0.111h-29.327c-0.209,0-0.379-0.17-0.379-0.379l0,0
					c0-0.209,0.17-0.379,0.379-0.379h29.01c0.834-0.889,1.292-2.043,1.292-3.268c0-1.225-0.458-2.379-1.292-3.268h-29.01
					c-0.209,0-0.379-0.17-0.379-0.379l0,0C363.326,261.79,363.496,261.62,363.705,261.62z"/>
			</g>
			<g style="opacity:0.4;">
				<path style="fill:#FFFFFF;" d="M363.705,261.62h29.327l0.031,0.031c1.013,1.014,1.649,2.364,1.698,3.797
					c0.054,1.553-0.526,3.021-1.618,4.114l-0.111,0.111h-29.327c-0.209,0-0.379-0.17-0.379-0.379l0,0
					c0-0.209,0.17-0.379,0.379-0.379h29.01c0.834-0.889,1.292-2.043,1.292-3.268c0-1.225-0.458-2.379-1.292-3.268h-29.01
					c-0.209,0-0.379-0.17-0.379-0.379l0,0C363.326,261.79,363.496,261.62,363.705,261.62z"/>
			</g>
		</g>
		<g>
			<path style="fill:#407BFF;" d="M364.06,277.257h34.548v-7.204h-34.56C364.359,272.443,364.363,274.866,364.06,277.257z"/>
			<path style="opacity:0.8;fill:#FFFFFF;" d="M364.06,277.257h34.548v-7.204h-34.56
				C364.359,272.443,364.363,274.866,364.06,277.257z"/>
			<g>
				<path style="fill:#263238;" d="M392.312,269.674h10.859l0.111,0.111c1.046,1.046,1.622,2.436,1.622,3.916
					c0,1.479-0.576,2.87-1.622,3.915l-0.111,0.111h-10.859l0.647-0.647c0.903-0.903,1.4-2.103,1.4-3.379
					c0-1.277-0.497-2.477-1.4-3.379L392.312,269.674z"/>
			</g>
			<g>
				<path style="fill:#407BFF;" d="M363.705,269.674h29.327l0.031,0.031c1.013,1.014,1.649,2.364,1.698,3.797
					c0.054,1.553-0.526,3.021-1.618,4.114l-0.111,0.111h-29.327c-0.209,0-0.379-0.17-0.379-0.379l0,0
					c0-0.209,0.17-0.379,0.379-0.379h29.01c0.834-0.889,1.292-2.043,1.292-3.268c0-1.225-0.458-2.38-1.292-3.268h-29.01
					c-0.209,0-0.379-0.17-0.379-0.379l0,0C363.326,269.844,363.496,269.674,363.705,269.674z"/>
			</g>
		</g>
		<g>
			<path style="fill:#407BFF;" d="M362.843,285.311h34.548v-7.204h-34.56C363.143,280.497,363.147,282.919,362.843,285.311z"/>
			<path style="opacity:0.7;fill:#FFFFFF;" d="M362.843,285.311h34.548v-7.204h-34.56
				C363.143,280.497,363.147,282.919,362.843,285.311z"/>
			<g>
				<path style="fill:#407BFF;" d="M391.096,277.727h10.859l0.111,0.111c1.046,1.046,1.622,2.436,1.622,3.916
					c0,1.479-0.576,2.87-1.622,3.915l-0.111,0.111h-10.859l0.647-0.647c0.903-0.903,1.4-2.103,1.4-3.379
					c0-1.277-0.497-2.477-1.4-3.379L391.096,277.727z"/>
			</g>
			<g>
				<path style="fill:#407BFF;" d="M362.488,277.727h29.327l0.031,0.031c1.013,1.014,1.649,2.364,1.699,3.797
					c0.054,1.553-0.526,3.021-1.619,4.114l-0.111,0.111h-29.327c-0.209,0-0.379-0.17-0.379-0.379l0,0
					c0-0.209,0.17-0.379,0.379-0.379h29.01c0.835-0.889,1.292-2.043,1.292-3.268c0-1.225-0.458-2.379-1.292-3.268h-29.01
					c-0.209,0-0.379-0.17-0.379-0.379l0,0C362.109,277.897,362.279,277.727,362.488,277.727z"/>
			</g>
			<g style="opacity:0.3;">
				<path style="fill:#FFFFFF;" d="M362.488,277.727h29.327l0.031,0.031c1.013,1.014,1.649,2.364,1.699,3.797
					c0.054,1.553-0.526,3.021-1.619,4.114l-0.111,0.111h-29.327c-0.209,0-0.379-0.17-0.379-0.379l0,0
					c0-0.209,0.17-0.379,0.379-0.379h29.01c0.835-0.889,1.292-2.043,1.292-3.268c0-1.225-0.458-2.379-1.292-3.268h-29.01
					c-0.209,0-0.379-0.17-0.379-0.379l0,0C362.109,277.897,362.279,277.727,362.488,277.727z"/>
			</g>
		</g>
	</g>
	<g>
		<path style="fill:#407BFF;" d="M357.768,272.721v5.54c0.294,0,0.532,0.238,0.532,0.532c0,0.294-0.238,0.532-0.532,0.532
			c-2.114,0-4.228,0-6.342,0v-7.676h6.342c0.296,0,0.536,0.24,0.536,0.536C358.305,272.481,358.065,272.721,357.768,272.721z"/>
		<path style="opacity:0.3;fill:#FFFFFF;enable-background:new    ;" d="M357.768,272.721v5.54c0.294,0,0.532,0.238,0.532,0.532
			c0,0.294-0.238,0.532-0.532,0.532c-2.114,0-4.228,0-6.342,0v-7.676h6.342c0.296,0,0.536,0.24,0.536,0.536
			C358.305,272.481,358.065,272.721,357.768,272.721z"/>
		<rect x="352.843" y="272.729" style="fill:#407BFF;" width="4.925" height="5.532"/>
		<rect x="352.843" y="272.729" style="opacity:0.6;fill:#FFFFFF;enable-background:new    ;" width="4.925" height="5.532"/>
		<path style="fill:#407BFF;" d="M353.878,272.189h-27.19c-1.177,0-2.129,1.499-2.129,3.306s0.952,3.298,2.129,3.298h27.19V272.189z
			"/>
		<path style="opacity:0.9;fill:#FFFFFF;enable-background:new    ;" d="M353.878,272.189h-27.19c-1.177,0-2.129,1.499-2.129,3.306
			s0.952,3.298,2.129,3.298h27.19V272.189z"/>
		<path style="fill:#407BFF;" d="M353.878,279.326c-5.592,0-21.305,0.105-26.898,0c-3.831-0.068-4.033-7.407-0.277-7.669
			c2.616-0.18,5.307,0,7.931,0h19.244c0.294,0,0.532,0.238,0.532,0.532c0,0.294-0.238,0.532-0.532,0.532h-26.013
			c-1.229,0-2.107,0-2.579,1.462c-0.412,1.252-0.277,3.808,1.402,4.078c0.19,0.015,0.38,0.015,0.57,0h26.62
			c0.294,0,0.532,0.238,0.532,0.532C354.41,279.087,354.172,279.326,353.878,279.326L353.878,279.326z"/>
		<g style="opacity:0.2;">
			<path style="fill:#FFFFFF;" d="M353.878,279.326c-5.592,0-21.305,0.105-26.898,0c-3.831-0.068-4.033-7.407-0.277-7.669
				c2.616-0.18,5.307,0,7.931,0h19.244c0.294,0,0.532,0.238,0.532,0.532c0,0.294-0.238,0.532-0.532,0.532h-26.013
				c-1.229,0-2.107,0-2.579,1.462c-0.412,1.252-0.277,3.808,1.402,4.078c0.19,0.015,0.38,0.015,0.57,0h26.62
				c0.294,0,0.532,0.238,0.532,0.532C354.41,279.087,354.172,279.326,353.878,279.326L353.878,279.326z"/>
		</g>
		<path style="fill:#407BFF;" d="M356.824,280.203v5.135c0.271,0.034,0.464,0.281,0.43,0.552c-0.028,0.225-0.205,0.402-0.43,0.43
			h-5.877v-7.122h5.877c0.277,0,0.502,0.225,0.502,0.502C357.326,279.978,357.101,280.203,356.824,280.203L356.824,280.203z"/>
		<path style="opacity:0.3;fill:#FFFFFF;enable-background:new    ;" d="M356.824,280.203v5.135c0.271,0.034,0.464,0.281,0.43,0.552
			c-0.028,0.225-0.205,0.402-0.43,0.43h-5.877v-7.122h5.877c0.277,0,0.502,0.225,0.502,0.502
			C357.326,279.978,357.101,280.203,356.824,280.203L356.824,280.203z"/>
		<rect x="352.259" y="280.21" style="fill:#407BFF;" width="4.565" height="5.128"/>
		<rect x="352.259" y="280.21" style="opacity:0.6;fill:#FFFFFF;enable-background:new    ;" width="4.565" height="5.128"/>
		<path style="fill:#407BFF;" d="M353.218,279.708h-25.181c-1.087,0-1.972,1.372-1.972,3.059c0,1.687,0.885,3.059,1.972,3.059
			h25.181V279.708z"/>
		<path style="opacity:0.9;fill:#FFFFFF;enable-background:new    ;" d="M353.218,279.708h-25.181c-1.087,0-1.972,1.372-1.972,3.059
			c0,1.687,0.885,3.059,1.972,3.059h25.181V279.708z"/>
		<path style="fill:#407BFF;" d="M353.218,286.32c-5.18,0-19.731,0.09-24.911,0c-3.546-0.068-3.748-6.859-0.255-7.099
			c2.421-0.165,4.918,0,7.347,0h17.819c0.271,0.034,0.464,0.281,0.43,0.552c-0.028,0.225-0.205,0.402-0.43,0.43h-24.086
			c-1.139,0-1.949,0-2.391,1.349c-0.382,1.162-0.262,3.531,1.297,3.786c0.177,0.011,0.355,0.011,0.532,0h24.649
			c0.271,0.034,0.464,0.281,0.43,0.552C353.621,286.115,353.443,286.292,353.218,286.32L353.218,286.32z"/>
		<path style="fill:#407BFF;" d="M359.748,287.392v6.11c0.323,0.001,0.584,0.263,0.584,0.586c0,0.322-0.262,0.583-0.584,0.584
			c-2.324,0-4.655,0-6.987,0v-8.441h6.987c0.321,0.037,0.551,0.326,0.515,0.647C360.232,287.147,360.018,287.361,359.748,287.392z"
			/>
		<path style="opacity:0.3;fill:#FFFFFF;enable-background:new    ;" d="M359.748,287.392v6.11c0.323,0.001,0.584,0.263,0.584,0.586
			c0,0.322-0.262,0.583-0.584,0.584c-2.324,0-4.655,0-6.987,0v-8.441h6.987c0.321,0.037,0.551,0.326,0.515,0.647
			C360.232,287.147,360.018,287.361,359.748,287.392z"/>
		<rect x="354.32" y="287.407" style="fill:#407BFF;" width="5.427" height="6.102"/>
		<rect x="354.32" y="287.407" style="opacity:0.6;fill:#FFFFFF;enable-background:new    ;" width="5.427" height="6.102"/>
		<path style="fill:#407BFF;" d="M355.46,286.815h-29.986c-1.289,0-2.339,1.627-2.339,3.636s1.049,3.643,2.339,3.643h29.986V286.815
			z"/>
		<path style="opacity:0.9;fill:#FFFFFF;enable-background:new    ;" d="M355.46,286.815h-29.986c-1.289,0-2.339,1.627-2.339,3.636
			s1.049,3.643,2.339,3.643h29.986V286.815z"/>
		<path style="fill:#407BFF;" d="M355.46,294.678c-6.162,0-23.479,0.112-29.641,0c-4.221-0.075-4.445-8.164-0.307-8.449
			c2.886-0.195,5.855,0,8.741,0h21.208c0.323,0.001,0.584,0.263,0.584,0.586c-0.001,0.322-0.262,0.583-0.584,0.584h-28.667
			c-1.349,0-2.316,0-2.841,1.612c-0.45,1.379-0.307,4.19,1.537,4.498c0.212,0.015,0.425,0.015,0.637,0h29.334
			c0.323,0,0.584,0.263,0.584,0.586C356.043,294.417,355.782,294.678,355.46,294.678z"/>
		<g style="opacity:0.2;">
			<path d="M355.46,294.678c-6.162,0-23.479,0.112-29.641,0c-4.221-0.075-4.445-8.164-0.307-8.449c2.886-0.195,5.855,0,8.741,0
				h21.208c0.323,0.001,0.584,0.263,0.584,0.586c-0.001,0.322-0.262,0.583-0.584,0.584h-28.667c-1.349,0-2.316,0-2.841,1.612
				c-0.45,1.379-0.307,4.19,1.537,4.498c0.212,0.015,0.425,0.015,0.637,0h29.334c0.323,0,0.584,0.263,0.584,0.586
				C356.043,294.417,355.782,294.678,355.46,294.678z"/>
		</g>
	</g>
</g>
<g id="Typewriter">
	<g>
		<g>
			<path style="fill:#407BFF;" d="M311.9,276.614c-1.293-8.74,1.145-15.562,12.191-24.303c-13.152,0-26.303,0-39.455,0
				c-11.051,8.74-13.485,15.563-12.19,24.303C285.598,276.614,298.749,276.614,311.9,276.614z"/>
		</g>
		<g style="opacity:0.7;">
			<path style="fill:#FFFFFF;" d="M311.9,276.614c-1.293-8.74,1.145-15.562,12.191-24.303c-13.152,0-26.303,0-39.455,0
				c-11.051,8.74-13.485,15.563-12.19,24.303C285.598,276.614,298.749,276.614,311.9,276.614z"/>
		</g>
		<polygon style="fill:#407BFF;" points="309.191,274.068 287.069,288.397 287.069,294.833 313.993,294.833 313.993,274.068 		"/>
		<polygon style="opacity:0.2;" points="309.191,274.068 287.069,288.397 287.069,294.833 313.993,294.833 313.993,274.068 		"/>
		<g>
			<rect x="247.455" y="288.397" style="fill:#407BFF;" width="39.613" height="6.437"/>
			<rect x="247.455" y="288.397" style="opacity:0.1;fill:#FFFFFF;" width="39.613" height="6.437"/>
		</g>
		<polygon style="fill:#407BFF;" points="247.455,288.397 269.577,274.068 309.191,274.068 287.069,288.397 		"/>
		<polygon style="opacity:0.5;fill:#FFFFFF;" points="247.455,288.397 269.577,274.068 309.191,274.068 287.069,288.397 		"/>
		<path style="fill:#263238;" d="M272.614,275.358c0-0.396-0.934-0.717-2.085-0.717s-2.085,0.321-2.085,0.717v1.229
			c0,0.396,0.934,0.717,2.085,0.717s2.085-0.321,2.085-0.717V275.358z"/>
		<ellipse style="fill:#407BFF;" cx="270.529" cy="275.358" rx="2.085" ry="0.717"/>
		<path style="fill:#263238;" d="M278.868,275.358c0-0.396-0.934-0.717-2.085-0.717c-1.151,0-2.085,0.321-2.085,0.717v1.229
			c0,0.396,0.934,0.717,2.085,0.717c1.151,0,2.085-0.321,2.085-0.717V275.358z"/>
		<ellipse style="fill:#407BFF;" cx="276.784" cy="275.358" rx="2.085" ry="0.717"/>
		<path style="fill:#263238;" d="M285.123,275.358c0-0.396-0.934-0.717-2.085-0.717c-1.151,0-2.085,0.321-2.085,0.717v1.229
			c0,0.396,0.934,0.717,2.085,0.717c1.151,0,2.085-0.321,2.085-0.717V275.358z"/>
		<path style="fill:#407BFF;" d="M285.123,275.358c0,0.396-0.933,0.717-2.085,0.717c-1.151,0-2.085-0.321-2.085-0.717
			s0.933-0.717,2.085-0.717C284.19,274.642,285.123,274.963,285.123,275.358z"/>
		<path style="fill:#263238;" d="M291.378,275.358c0-0.396-0.934-0.717-2.085-0.717c-1.151,0-2.085,0.321-2.085,0.717v1.229
			c0,0.396,0.934,0.717,2.085,0.717c1.151,0,2.085-0.321,2.085-0.717V275.358z"/>
		<ellipse style="fill:#407BFF;" cx="289.293" cy="275.358" rx="2.085" ry="0.717"/>
		<path style="fill:#263238;" d="M297.633,275.358c0-0.396-0.934-0.717-2.085-0.717s-2.085,0.321-2.085,0.717v1.229
			c0,0.396,0.934,0.717,2.085,0.717s2.085-0.321,2.085-0.717V275.358z"/>
		<ellipse style="fill:#407BFF;" cx="295.548" cy="275.358" rx="2.085" ry="0.717"/>
		<path style="fill:#263238;" d="M303.887,275.358c0-0.396-0.934-0.717-2.085-0.717s-2.085,0.321-2.085,0.717v1.229
			c0,0.396,0.934,0.717,2.085,0.717s2.085-0.321,2.085-0.717V275.358z"/>
		<ellipse style="fill:#407BFF;" cx="301.802" cy="275.358" rx="2.085" ry="0.717"/>
		<path style="fill:#263238;" d="M266.359,279.287c0-0.396-0.934-0.717-2.085-0.717s-2.085,0.321-2.085,0.717v1.229
			c0,0.396,0.934,0.717,2.085,0.717s2.085-0.321,2.085-0.717V279.287z"/>
		<path style="fill:#407BFF;" d="M266.359,279.287c0,0.396-0.933,0.717-2.085,0.717c-1.151,0-2.085-0.321-2.085-0.717
			c0-0.396,0.934-0.717,2.085-0.717C265.426,278.57,266.359,278.891,266.359,279.287z"/>
		<path style="fill:#263238;" d="M272.614,279.287c0-0.396-0.934-0.717-2.085-0.717s-2.085,0.321-2.085,0.717v1.229
			c0,0.396,0.934,0.717,2.085,0.717s2.085-0.321,2.085-0.717V279.287z"/>
		<path style="fill:#407BFF;" d="M272.614,279.287c0,0.396-0.934,0.717-2.085,0.717c-1.151,0-2.085-0.321-2.085-0.717
			c0-0.396,0.933-0.717,2.085-0.717C271.68,278.57,272.614,278.891,272.614,279.287z"/>
		<path style="fill:#263238;" d="M278.868,279.287c0-0.396-0.934-0.717-2.085-0.717c-1.151,0-2.085,0.321-2.085,0.717v1.229
			c0,0.396,0.934,0.717,2.085,0.717c1.151,0,2.085-0.321,2.085-0.717V279.287z"/>
		<path style="fill:#407BFF;" d="M278.868,279.287c0,0.396-0.934,0.717-2.085,0.717c-1.151,0-2.085-0.321-2.085-0.717
			c0-0.396,0.933-0.717,2.085-0.717C277.935,278.57,278.868,278.891,278.868,279.287z"/>
		<path style="fill:#263238;" d="M285.123,279.287c0-0.396-0.934-0.717-2.085-0.717c-1.151,0-2.085,0.321-2.085,0.717v1.229
			c0,0.396,0.934,0.717,2.085,0.717c1.151,0,2.085-0.321,2.085-0.717V279.287z"/>
		<path style="fill:#407BFF;" d="M285.123,279.287c0,0.396-0.933,0.717-2.085,0.717c-1.151,0-2.085-0.321-2.085-0.717
			c0-0.396,0.933-0.717,2.085-0.717C284.19,278.57,285.123,278.891,285.123,279.287z"/>
		<path style="fill:#263238;" d="M291.378,279.287c0-0.396-0.934-0.717-2.085-0.717c-1.151,0-2.085,0.321-2.085,0.717v1.229
			c0,0.396,0.934,0.717,2.085,0.717c1.151,0,2.085-0.321,2.085-0.717V279.287z"/>
		<path style="fill:#407BFF;" d="M291.378,279.287c0,0.396-0.933,0.717-2.085,0.717c-1.151,0-2.085-0.321-2.085-0.717
			c0-0.396,0.934-0.717,2.085-0.717C290.444,278.57,291.378,278.891,291.378,279.287z"/>
		<path style="fill:#263238;" d="M297.633,279.287c0-0.396-0.934-0.717-2.085-0.717s-2.085,0.321-2.085,0.717v1.229
			c0,0.396,0.934,0.717,2.085,0.717s2.085-0.321,2.085-0.717V279.287z"/>
		<path style="fill:#407BFF;" d="M297.633,279.287c0,0.396-0.933,0.717-2.085,0.717c-1.151,0-2.085-0.321-2.085-0.717
			c0-0.396,0.934-0.717,2.085-0.717C296.699,278.57,297.633,278.891,297.633,279.287z"/>
		<path style="fill:#263238;" d="M259.785,283.215c0-0.396-0.934-0.717-2.085-0.717s-2.085,0.321-2.085,0.717v1.229
			c0,0.396,0.933,0.717,2.085,0.717s2.085-0.321,2.085-0.717V283.215z"/>
		<path style="fill:#407BFF;" d="M259.785,283.215c0,0.396-0.933,0.717-2.085,0.717c-1.151,0-2.085-0.321-2.085-0.717
			c0-0.396,0.933-0.717,2.085-0.717C258.852,282.498,259.785,282.819,259.785,283.215z"/>
		<path style="fill:#263238;" d="M266.04,283.215c0-0.396-0.934-0.717-2.085-0.717s-2.085,0.321-2.085,0.717v1.229
			c0,0.396,0.934,0.717,2.085,0.717s2.085-0.321,2.085-0.717V283.215z"/>
		<path style="fill:#407BFF;" d="M266.04,283.215c0,0.396-0.933,0.717-2.085,0.717c-1.151,0-2.085-0.321-2.085-0.717
			c0-0.396,0.933-0.717,2.085-0.717C265.107,282.498,266.04,282.819,266.04,283.215z"/>
		<path style="fill:#263238;" d="M272.295,283.215c0-0.396-0.934-0.717-2.085-0.717s-2.085,0.321-2.085,0.717v1.229
			c0,0.396,0.934,0.717,2.085,0.717s2.085-0.321,2.085-0.717V283.215z"/>
		<path style="fill:#407BFF;" d="M272.295,283.215c0,0.396-0.934,0.717-2.085,0.717c-1.151,0-2.085-0.321-2.085-0.717
			c0-0.396,0.933-0.717,2.085-0.717C271.361,282.498,272.295,282.819,272.295,283.215z"/>
		<path style="fill:#263238;" d="M278.55,283.215c0-0.396-0.934-0.717-2.085-0.717c-1.151,0-2.085,0.321-2.085,0.717v1.229
			c0,0.396,0.934,0.717,2.085,0.717c1.151,0,2.085-0.321,2.085-0.717V283.215z"/>
		<path style="fill:#407BFF;" d="M278.55,283.215c0,0.396-0.934,0.717-2.085,0.717c-1.151,0-2.085-0.321-2.085-0.717
			c0-0.396,0.933-0.717,2.085-0.717C277.616,282.498,278.55,282.819,278.55,283.215z"/>
		<path style="fill:#263238;" d="M284.804,283.215c0-0.396-0.934-0.717-2.085-0.717c-1.151,0-2.085,0.321-2.085,0.717v1.229
			c0,0.396,0.934,0.717,2.085,0.717c1.151,0,2.085-0.321,2.085-0.717V283.215z"/>
		<path style="fill:#407BFF;" d="M284.804,283.215c0,0.396-0.933,0.717-2.085,0.717c-1.151,0-2.085-0.321-2.085-0.717
			c0-0.396,0.933-0.717,2.085-0.717C283.871,282.498,284.804,282.819,284.804,283.215z"/>
		<path style="fill:#263238;" d="M291.059,283.215c0-0.396-0.934-0.717-2.085-0.717c-1.151,0-2.085,0.321-2.085,0.717v1.229
			c0,0.396,0.934,0.717,2.085,0.717c1.151,0,2.085-0.321,2.085-0.717V283.215z"/>
		<path style="fill:#407BFF;" d="M291.059,283.215c0,0.396-0.933,0.717-2.085,0.717c-1.151,0-2.085-0.321-2.085-0.717
			c0-0.396,0.934-0.717,2.085-0.717C290.125,282.498,291.059,282.819,291.059,283.215z"/>
		<g>
			<path style="fill:#263238;" d="M313.573,280.484c2.519,0,4.561-2.042,4.561-4.561s-2.042-4.561-4.561-4.561h-1.907
				c-2.519,0-4.561,2.042-4.561,4.561s2.042,4.561,4.561,4.561H313.573z"/>
			<path style="fill:#263238;" d="M318.134,275.923c0,2.519-2.042,4.561-4.561,4.561c-2.519,0-4.561-2.042-4.561-4.561
				s2.042-4.561,4.561-4.561C316.092,271.362,318.134,273.404,318.134,275.923z"/>
			<path style="opacity:0.5;fill:#FFFFFF;" d="M318.134,275.923c0,2.519-2.042,4.561-4.561,4.561c-2.519,0-4.561-2.042-4.561-4.561
				s2.042-4.561,4.561-4.561C316.092,271.362,318.134,273.404,318.134,275.923z"/>
		</g>
	</g>
</g>
<g id="Character">
	<g>
		<path style="fill:#407BFF;" d="M230.443,222.881c-0.233-0.002-0.464-0.032-0.69-0.09c-0.78-0.162-1.439-0.68-1.78-1.4
			c-0.86-1.83,0.43-4.62,0.49-4.73l0.13-0.29h0.32c4.72,0,4.76,0.1,4.94,0.39c0.26,0.44-0.2,3.49-1.32,5
			C232.061,222.453,231.281,222.871,230.443,222.881z M229.243,217.371c-0.35,0.86-0.85,2.57-0.36,3.6
			c0.219,0.444,0.634,0.759,1.12,0.85c0.468,0.152,0.981,0.046,1.35-0.28c1-0.86,1.47-3.14,1.56-4.09
			C232.173,217.411,230.693,217.381,229.243,217.371z"/>
		<polygon style="fill:#EEC1BB;" points="255.973,388.761 255.003,406.681 248.503,407.181 246.793,388.871 		"/>
		<g>
			<path style="fill:#407BFF;" d="M256.303,406.611c-0.069-0.011-0.124-0.062-0.14-0.13c-0.011-0.071,0.02-0.141,0.08-0.18
				c0.11-0.06,2.58-1.49,3.76-1.18c0.219,0.059,0.408,0.199,0.53,0.39c0.155,0.219,0.155,0.512,0,0.73
				c-0.6,0.438-1.341,0.637-2.08,0.56C257.732,406.802,257.013,406.738,256.303,406.611z M256.843,406.381
				c1.32,0.16,3.11,0.13,3.44-0.33c0-0.06,0.09-0.16,0-0.37c-0.069-0.123-0.19-0.208-0.33-0.23c-0.106-0.015-0.214-0.015-0.32,0
				C258.654,405.584,257.707,405.9,256.843,406.381z"/>
			<path style="fill:#407BFF;" d="M256.173,406.601c-0.05-0.034-0.08-0.09-0.08-0.15c0.067-1.008,0.448-1.97,1.09-2.75
				c0.255-0.224,0.593-0.329,0.93-0.29c0.46,0,0.61,0.27,0.63,0.46c0.15,0.8-1.54,2.35-2.38,2.73c0,0,0,0-0.07,0
				C256.255,406.616,256.212,406.616,256.173,406.601z M258.003,403.731c-0.212-0.002-0.418,0.072-0.58,0.21
				c-0.523,0.616-0.847,1.376-0.93,2.18c0.88-0.52,2-1.73,1.94-2.22c0,0,0-0.16-0.33-0.18L258.003,403.731z"/>
		</g>
		<path style="fill:#263238;" d="M255.573,405.631h-7.4c-0.29,0.003-0.539,0.206-0.6,0.49l-1.35,6.31
			c-0.142,0.534,0.175,1.082,0.709,1.224c0.023,0.006,0.047,0.012,0.071,0.016h0.22c2.79-0.07,4.89-0.18,8.36-0.2
			c4.1,0,3.06,0.47,7.88,0.5c2.91,0,3.41-3.28,2.18-3.44c-5.64-0.67-6.24-2.36-8.43-4.36
			C256.751,405.797,256.168,405.605,255.573,405.631z"/>
		<polygon style="opacity:0.1;enable-background:new    ;" points="255.323,400.731 247.903,400.751 247.223,393.521 
			255.723,393.421 		"/>
		<path style="fill:#577AFA;" d="M186.173,309.791c0,0-3.79,18.82,12,22.33c15.79,3.51,45.13-0.3,45.13-0.3s-3.35,10.22,4,65.39
			h8.75c0,0,8.14-62,2.85-71.68C253.613,315.851,221.723,311.261,186.173,309.791z"/>
		<path style="fill:#263238;" d="M186.173,309.791c0,0-3.79,18.82,12,22.33c15.79,3.51,45.13-0.3,45.13-0.3s-3.35,10.22,4,65.39
			h8.75c0,0,8.14-62,2.85-71.68C253.613,315.851,221.723,311.261,186.173,309.791z"/>
		<path style="opacity:0.6;enable-background:new    ;" d="M258.173,324.541c0.248,0.316,0.472,0.65,0.67,1
			c2.68,4.9,1.91,23.28,0.49,40.2c-6.55-20.59-6.16-25.76-6.16-25.76s-4.32-0.28-10.61-0.61c0.16-5.8,0.72-7.52,0.72-7.52
			S253.293,322.231,258.173,324.541z"/>
		<g>
			<polygon style="fill:#407BFF;" points="256.893,394.801 256.403,398.271 246.793,398.291 246.323,394.961 			"/>
			<polygon style="opacity:0.3;fill:#FFFFFF;enable-background:new    ;" points="256.893,394.801 256.403,398.271 246.793,398.291 
				246.323,394.961 			"/>
		</g>
		<polygon style="fill:#EEC1BB;" points="281.243,385.431 284.003,403.431 277.373,404.701 271.513,387.931 		"/>
		<path style="fill:#407BFF;" d="M285.233,403.311c-0.072-0.024-0.126-0.085-0.14-0.16c-0.007-0.067,0.023-0.133,0.08-0.17
			c0.13-0.06,3.07-1.45,4.4-1c0.249,0.078,0.457,0.25,0.58,0.48c0.178,0.241,0.178,0.57,0,0.81c-0.731,0.433-1.592,0.592-2.43,0.45
			C286.883,403.656,286.05,403.519,285.233,403.311z M285.873,403.101c1.51,0.28,3.56,0.4,4-0.09c0.06-0.06,0.12-0.17,0-0.41
			c-0.069-0.145-0.203-0.249-0.36-0.28c-0.116-0.043-0.237-0.066-0.36-0.07C288.016,402.326,286.904,402.615,285.873,403.101z"/>
		<path style="fill:#407BFF;" d="M285.173,403.291c-0.053-0.04-0.079-0.105-0.07-0.17c0-0.1,0.38-2.21,1.47-3
			c0.317-0.231,0.715-0.321,1.1-0.25c0.52,0.09,0.67,0.36,0.68,0.57c0.11,0.9-2,2.48-3,2.84h-0.08
			C285.241,403.293,285.207,403.296,285.173,403.291z M287.513,400.291c-0.242-0.022-0.484,0.046-0.68,0.19
			c-0.648,0.633-1.084,1.45-1.25,2.34c1-0.51,2.43-1.76,2.41-2.3c0-0.05,0-0.19-0.37-0.24L287.513,400.291z"/>
		<path style="fill:#263238;" d="M284.483,402.151l-8.88-0.58c-0.329-0.02-0.63,0.186-0.73,0.5l-2.09,6.9
			c-0.18,0.615,0.173,1.259,0.787,1.439c0.001,0,0.002,0,0.003,0.001c0.083,0.009,0.167,0.009,0.25,0c3.21,0.16,6.06,0.17,10,0.44
			c4.7,0.31,3.47,0.77,9,1.21c3.33,0.26,4.19-3.37,2.79-3.64c-6.41-1.21-6.95-3.15-9.28-5.56
			C285.815,402.422,285.163,402.171,284.483,402.151z"/>
		<polygon style="opacity:0.1;enable-background:new    ;" points="272.793,391.611 281.673,388.281 283.013,397.011 
			275.363,398.961 		"/>
		<path style="fill:#263238;" d="M190.963,310.981c0,0-2,21,14.17,20.68s49.73,1.8,49.73,1.8s-0.83,10.72,19.42,62.56l8.49-2.07
			c0,0-6.86-62.18-14.29-70.3S225.893,303.901,190.963,310.981z"/>
		<polygon style="fill:#407BFF;" points="283.063,391.361 283.423,394.851 274.093,397.151 272.833,394.031 		"/>
		<polygon style="opacity:0.3;fill:#FFFFFF;enable-background:new    ;" points="283.063,391.361 283.423,394.851 274.093,397.151 
			272.833,394.031 		"/>
		<path style="fill:#D58745;" d="M228.893,219.791l3.08,4.32c-1.031,0.724-2.342,0.921-3.54,0.53L228.893,219.791z"/>
		<path style="fill:#263238;" d="M230.573,219.081c0,0.58-0.23,1.06-0.61,1.09s-0.74-0.45-0.76-1c-0.02-0.55,0.23-1.06,0.61-1.08
			C230.193,218.071,230.533,218.511,230.573,219.081z"/>
		<path style="fill:#EEC1BB;" d="M208.173,216.651c0.15,7.67,0,10.92,3.74,15c5.74,4.25,15,4.3,17.11-3.27
			c1.93-6.8,1.37-18.17-6-21.57c-5.251-2.422-11.471-0.129-13.893,5.122C208.449,213.41,208.122,215.025,208.173,216.651z"/>
		<path style="opacity:0.2;fill:#263238;enable-background:new    ;" d="M219.883,234.511v-0.38c0.08-0.83,0.475-1.104,1.295-0.924
			l3.555,0.384C223.217,234.291,221.551,234.607,219.883,234.511z"/>
		<path style="fill:#263238;" d="M228.363,216.581c0.101,0.007,0.199-0.039,0.26-0.12c0.445-0.625,1.163-0.997,1.93-1
			c0.165,0.011,0.309-0.113,0.32-0.279c0,0,0-0.001,0-0.001c0.006-0.164-0.117-0.304-0.28-0.32c-0.965-0.011-1.877,0.443-2.45,1.22
			c-0.1,0.136-0.074,0.327,0.06,0.43l0,0C228.249,216.549,228.304,216.574,228.363,216.581z"/>
		<polygon style="fill:#EEC1BB;" points="220.063,232.561 217.983,244.071 207.383,242.661 210.813,230.811 		"/>
		<path style="fill:#407BFF;" d="M219.813,239.181l3.59-2.07c0,0-11.47-3.74-16.4-2.31c-4.93,1.43-2.79,3.71-2.79,3.71
			L219.813,239.181z"/>
		<path style="opacity:0.5;fill:#FFFFFF;enable-background:new    ;" d="M219.813,239.181l3.59-2.07c0,0-11.47-3.74-16.4-2.31
			c-4.93,1.43-2.79,3.71-2.79,3.71L219.813,239.181z"/>
		<path style="opacity:0.2;enable-background:new    ;" d="M204.173,238.511l15.6,0.67l2-1.14c-11-3.3-16.18-1.54-18-0.5
			C203.818,237.894,203.956,238.229,204.173,238.511z"/>
		<g>
			<path style="fill:#E4897B;" d="M206.813,255.321c0,0,5,19.08,7,20.94c1.24,1.19,23-1.33,23-1.33l6.06-2.13
				c1.027-0.374,2.177-0.159,3,0.56c1.84,1.57,4.89,4.42,5,6.1c-0.139,0.911-0.688,1.707-1.49,2.16c-1.25,0.35-4.72-2.13-4.72-2.13
				l-7.9,0.69c0,0-19.64,5.9-25.39,5.34c-6.68-0.65-12.82-24.72-12.82-24.72L206.813,255.321z"/>
			<path style="fill:#EEC1BB;" d="M206.813,255.321c0,0,5,19.08,7,20.94c1.24,1.19,23-1.33,23-1.33l6.06-2.13
				c1.027-0.374,2.177-0.159,3,0.56c1.84,1.57,4.89,4.42,5,6.1c-0.139,0.911-0.688,1.707-1.49,2.16c-1.25,0.35-4.72-2.13-4.72-2.13
				l-7.9,0.69c0,0-19.64,5.9-25.39,5.34c-6.68-0.65-12.82-24.72-12.82-24.72L206.813,255.321z"/>
			<path style="opacity:0.1;enable-background:new    ;" d="M206.813,255.321c0,0,5,19.08,7,20.94c1.24,1.19,23-1.33,23-1.33
				l6.06-2.13c1.027-0.374,2.177-0.159,3,0.56c1.84,1.57,4.89,4.42,5,6.1c-0.139,0.911-0.688,1.707-1.49,2.16
				c-1.25,0.35-4.72-2.13-4.72-2.13l-7.9,0.69c0,0-19.64,5.9-25.39,5.34c-6.68-0.65-12.82-24.72-12.82-24.72L206.813,255.321z"/>
			<path style="fill:#577AFA;" d="M199.173,241.271c0,0,5.67,0.67,9.88,19.53c-3.487,1.059-6.704,2.86-9.43,5.28
				c0,0-3.37-8.6-3.7-13.3C195.798,248.702,196.932,244.682,199.173,241.271z"/>
			<path style="opacity:0.3;enable-background:new    ;" d="M199.173,241.271c0,0,5.67,0.67,9.88,19.53
				c-3.487,1.059-6.704,2.86-9.43,5.28c0,0-3.37-8.6-3.7-13.3C195.798,248.702,196.932,244.682,199.173,241.271z"/>
		</g>
		<path style="opacity:0.2;enable-background:new    ;" d="M225.003,246.601l3.44,9.35c-0.46,3.51-1,7.64-1.52,12.09
			c-2.947-6.716-4.015-14.105-3.09-21.38L225.003,246.601z"/>
		<path style="fill:#EEC1BB;" d="M235.773,252.311c0,0,6.91,11.1,9.43,12.4c1.61,0.84,18.43-3.32,18.43-3.32s4.8-4.93,6.94-5
			c2.53-0.08,7.72,3,8.58,5.41c0.141,0.96-0.178,1.93-0.86,2.62c-1.15,0.72-4.05-0.91-5.4-0.75c-2.07,0.24-5.85,2.23-7.77,3.05
			c-6.22,2.63-13.66,6.93-19.63,8.07c-6.94,1.32-16.48-14.48-16.48-14.48L235.773,252.311z"/>
		<polygon style="fill:#407BFF;" points="221.544,218.14 221.564,217.14 232.874,216.346 232.855,217.346 		"/>
		<path style="fill:#263238;" d="M222.308,224.838c2.003,9.637-9.535,9.637-12.374,9.011c-8.956-1.336-9.604-7.024-10.936-8.266
			c-1.332-1.242-4.599-7.991,3.913-15.831c2.183-2.01,4.955-6.151,7.218-7.59c3.06-1.945,7.657-1.002,8.941,1.352
			c4.333-2.584,8.939-0.533,10.408,2.331c1.181,2.302,1.396,4.976-0.276,6.758c-1.108,1.182-0.769,0.91-1.975,1.992
			c-1.206,1.082-2.514,2.921-2.916,5.576c-0.242,1.602-3.551-0.601-4.174,0.895C218.959,220.573,221.32,220.086,222.308,224.838z"/>
		<path style="fill:#EEC1BB;" d="M223.933,218.901c0.552,1.467,0.498,3.093-0.15,4.52c-0.87,1.88-1.9,1.44-3-0.19
			c-1-1.48-1.71-4.24-0.19-5.6C222.113,216.271,223.233,217.111,223.933,218.901z"/>
		<g>
			<path style="fill:#407BFF;" d="M229.993,244.511c0,0-0.581,8.452-3.07,23.53c-0.625,3.788-4.91,4.148-4.615,14.457
				c0.223,7.775,2.613,20.302,2.425,26.29c0,0-15.58,2.443-39.38,2.823c0,0-3.63-69.29,18.86-73.08
				C225.173,234.981,229.993,244.511,229.993,244.511z"/>
			<path style="opacity:0.4;enable-background:new    ;" d="M229.993,244.511c0,0-0.581,8.452-3.07,23.53
				c-0.625,3.788-4.91,4.148-4.615,14.457c0.223,7.775,2.613,20.302,2.425,26.29c0,0-15.58,2.443-39.38,2.823
				c0,0-3.63-69.29,18.86-73.08C225.173,234.981,229.993,244.511,229.993,244.511z"/>
		</g>
		<path style="opacity:0.2;fill:#263238;enable-background:new    ;" d="M223.232,248.604c0.239,0.536-1.932,15.203,3.977,16.389
			l2.268-10.667L223.232,248.604z"/>
		<g>
			<path style="fill:#407BFF;" d="M224.323,241.281c0,0,8.59-3.56,17,16.78c0,0-4.48,0.18-10.36,7.54c0,0-4.76-7.09-6.49-11.74
				C222.173,247.661,224.323,241.281,224.323,241.281z"/>
			<path style="opacity:0.4;enable-background:new    ;" d="M224.323,241.281c0,0,8.59-3.56,17,16.78c0,0-4.48,0.18-10.36,7.54
				c0,0-4.76-7.09-6.49-11.74C222.173,247.661,224.323,241.281,224.323,241.281z"/>
		</g>
	</g>
	<g>
		<g>
			<g>
				<path style="fill:#407BFF;" d="M214.637,347.64c-0.085-0.696-0.698-1.307-1.57-1.692l-0.078-0.639
					c0.777-0.384,1.24-0.996,1.154-1.691c-0.144-1.17-1.766-2.118-3.625-2.118c-1.858,0-3.248,0.948-3.104,2.118
					c0.085,0.696,0.698,1.307,1.57,1.691l0.078,0.639c-0.777,0.384-1.24,0.996-1.154,1.692c0.058,0.471,0.358,0.903,0.816,1.252
					c0.706,0.539,1.108,1.375,1.138,2.209c0.182,5.142,0.766,12.163,1.717,19.909c0.957,7.796,2.105,14.858,3.193,20.009
					c0.178,0.84-0.02,1.684-0.599,2.227c-0.374,0.35-0.569,0.783-0.511,1.254c0.085,0.696,0.698,1.307,1.57,1.691l0.078,0.639
					c-0.777,0.384-1.24,0.995-1.154,1.691c0.037,0.302,0.174,0.589,0.388,0.848c0.528,0.639,0.961,1.347,1.095,2.128
					c0.995,5.783,2.015,10.345,2.873,12.809h1.893c0.253-2.463,0.152-7.025-0.272-12.809c-0.057-0.781,0.201-1.488,0.573-2.128
					c0.15-0.259,0.217-0.546,0.18-0.848c-0.085-0.696-0.698-1.307-1.57-1.691l-0.078-0.639c0.777-0.384,1.24-0.996,1.154-1.691
					c-0.058-0.472-0.359-0.905-0.819-1.254c-0.712-0.542-1.117-1.387-1.146-2.227c-0.178-5.151-0.764-12.213-1.721-20.009
					c-0.951-7.746-2.091-14.767-3.172-19.909c-0.175-0.834,0.021-1.67,0.595-2.209C214.501,348.543,214.695,348.111,214.637,347.64z
					"/>
				<path style="fill:#407BFF;" d="M167.272,347.64c0.085-0.696,0.698-1.307,1.57-1.692l0.078-0.639
					c-0.777-0.384-1.24-0.996-1.154-1.691c0.144-1.17,1.766-2.118,3.624-2.118c1.858,0,3.248,0.948,3.105,2.118
					c-0.085,0.696-0.698,1.307-1.57,1.691l-0.079,0.639c0.777,0.384,1.24,0.996,1.154,1.692c-0.058,0.471-0.358,0.903-0.816,1.252
					c-0.706,0.539-1.108,1.375-1.138,2.209c-0.182,5.142-0.766,12.163-1.717,19.909c-0.957,7.796-2.105,14.858-3.193,20.009
					c-0.177,0.84,0.02,1.684,0.599,2.227c0.374,0.35,0.569,0.783,0.511,1.254c-0.085,0.696-0.698,1.307-1.57,1.691l-0.079,0.639
					c0.777,0.384,1.24,0.995,1.154,1.691c-0.037,0.302-0.174,0.589-0.388,0.848c-0.528,0.639-0.961,1.347-1.095,2.128
					c-0.995,5.783-2.015,10.345-2.873,12.809h-1.893c-0.253-2.463-0.152-7.025,0.272-12.809c0.057-0.781-0.201-1.488-0.572-2.128
					c-0.15-0.259-0.217-0.546-0.18-0.848c0.085-0.696,0.698-1.307,1.57-1.691l0.079-0.639c-0.777-0.384-1.24-0.996-1.154-1.691
					c0.058-0.472,0.359-0.905,0.819-1.254c0.712-0.542,1.117-1.387,1.146-2.227c0.178-5.151,0.764-12.213,1.721-20.009
					c0.951-7.746,2.09-14.767,3.172-19.909c0.175-0.834-0.021-1.67-0.595-2.209C167.408,348.543,167.214,348.111,167.272,347.64z"/>
			</g>
			<g style="opacity:0.3;">
				<path d="M214.637,347.64c-0.085-0.696-0.698-1.307-1.57-1.692l-0.078-0.639c0.777-0.384,1.24-0.996,1.154-1.691
					c-0.144-1.17-1.766-2.118-3.625-2.118c-1.858,0-3.248,0.948-3.104,2.118c0.085,0.696,0.698,1.307,1.57,1.691l0.078,0.639
					c-0.777,0.384-1.24,0.996-1.154,1.692c0.058,0.471,0.358,0.903,0.816,1.252c0.706,0.539,1.108,1.375,1.138,2.209
					c0.182,5.142,0.766,12.163,1.717,19.909c0.957,7.796,2.105,14.858,3.193,20.009c0.178,0.84-0.02,1.684-0.599,2.227
					c-0.374,0.35-0.569,0.783-0.511,1.254c0.085,0.696,0.698,1.307,1.57,1.691l0.078,0.639c-0.777,0.384-1.24,0.995-1.154,1.691
					c0.037,0.302,0.174,0.589,0.388,0.848c0.528,0.639,0.961,1.347,1.095,2.128c0.995,5.783,2.015,10.345,2.873,12.809h1.893
					c0.253-2.463,0.152-7.025-0.272-12.809c-0.057-0.781,0.201-1.488,0.573-2.128c0.15-0.259,0.217-0.546,0.18-0.848
					c-0.085-0.696-0.698-1.307-1.57-1.691l-0.078-0.639c0.777-0.384,1.24-0.996,1.154-1.691c-0.058-0.472-0.359-0.905-0.819-1.254
					c-0.712-0.542-1.117-1.387-1.146-2.227c-0.178-5.151-0.764-12.213-1.721-20.009c-0.951-7.746-2.091-14.767-3.172-19.909
					c-0.175-0.834,0.021-1.67,0.595-2.209C214.501,348.543,214.695,348.111,214.637,347.64z"/>
				<path d="M167.272,347.64c0.085-0.696,0.698-1.307,1.57-1.692l0.078-0.639c-0.777-0.384-1.24-0.996-1.154-1.691
					c0.144-1.17,1.766-2.118,3.624-2.118c1.858,0,3.248,0.948,3.105,2.118c-0.085,0.696-0.698,1.307-1.57,1.691l-0.079,0.639
					c0.777,0.384,1.24,0.996,1.154,1.692c-0.058,0.471-0.358,0.903-0.816,1.252c-0.706,0.539-1.108,1.375-1.138,2.209
					c-0.182,5.142-0.766,12.163-1.717,19.909c-0.957,7.796-2.105,14.858-3.193,20.009c-0.177,0.84,0.02,1.684,0.599,2.227
					c0.374,0.35,0.569,0.783,0.511,1.254c-0.085,0.696-0.698,1.307-1.57,1.691l-0.079,0.639c0.777,0.384,1.24,0.995,1.154,1.691
					c-0.037,0.302-0.174,0.589-0.388,0.848c-0.528,0.639-0.961,1.347-1.095,2.128c-0.995,5.783-2.015,10.345-2.873,12.809h-1.893
					c-0.253-2.463-0.152-7.025,0.272-12.809c0.057-0.781-0.201-1.488-0.572-2.128c-0.15-0.259-0.217-0.546-0.18-0.848
					c0.085-0.696,0.698-1.307,1.57-1.691l0.079-0.639c-0.777-0.384-1.24-0.996-1.154-1.691c0.058-0.472,0.359-0.905,0.819-1.254
					c0.712-0.542,1.117-1.387,1.146-2.227c0.178-5.151,0.764-12.213,1.721-20.009c0.951-7.746,2.09-14.767,3.172-19.909
					c0.175-0.834-0.021-1.67-0.595-2.209C167.408,348.543,167.214,348.111,167.272,347.64z"/>
			</g>
		</g>
		<path style="fill:#407BFF;" d="M163.24,332.822c7.234-1.834,14.65-2.853,22.11-3.038c7.69-0.192,36.347,0,43.162,0
			c8.305-0.009,16.579,1.021,24.628,3.066c5.057,1.288,3.49,8.594-1.077,8.652c-0.404,0-87.103,0-87.42,0
			C159.818,341.704,158.068,334.139,163.24,332.822z"/>
		<path style="opacity:0.3;" d="M163.24,332.822c7.234-1.834,14.65-2.853,22.11-3.038c7.69-0.192,36.347,0,43.162,0
			c8.305-0.009,16.579,1.021,24.628,3.066c5.057,1.288,3.49,8.594-1.077,8.652c-0.404,0-87.103,0-87.42,0
			C159.818,341.704,158.068,334.139,163.24,332.822z"/>
		<path style="fill:#407BFF;" d="M250.737,341.339c-14.62-3.711-29.936-3.711-44.556,0c-5.508,1.404-7.854-7.114-2.346-8.517
			c16.162-4.105,33.094-4.105,49.257,0C258.591,334.225,256.255,342.752,250.737,341.339L250.737,341.339z"/>
		<g>
			<path style="fill:#407BFF;" d="M247.572,347.64c-0.085-0.696-0.698-1.307-1.57-1.692l-0.078-0.639
				c0.777-0.384,1.24-0.996,1.154-1.691c-0.144-1.17-1.766-2.118-3.625-2.118c-1.858,0-3.248,0.948-3.104,2.118
				c0.085,0.696,0.698,1.307,1.57,1.691l0.078,0.639c-0.777,0.384-1.24,0.996-1.154,1.692c0.058,0.471,0.358,0.903,0.816,1.252
				c0.706,0.539,1.108,1.375,1.138,2.209c0.182,5.142,0.766,12.163,1.717,19.909c0.957,7.796,2.105,14.858,3.193,20.009
				c0.178,0.84-0.02,1.684-0.599,2.227c-0.374,0.35-0.568,0.783-0.511,1.254c0.085,0.696,0.698,1.307,1.57,1.691l0.078,0.639
				c-0.777,0.384-1.24,0.995-1.154,1.691c0.037,0.302,0.174,0.589,0.388,0.848c0.528,0.639,0.961,1.347,1.095,2.128
				c0.995,5.783,2.015,10.345,2.873,12.809h1.893c0.253-2.463,0.152-7.025-0.272-12.809c-0.057-0.781,0.201-1.488,0.573-2.128
				c0.15-0.259,0.217-0.546,0.18-0.848c-0.085-0.696-0.698-1.307-1.57-1.691l-0.078-0.639c0.777-0.384,1.24-0.996,1.154-1.691
				c-0.058-0.472-0.359-0.905-0.819-1.254c-0.712-0.542-1.117-1.387-1.146-2.227c-0.178-5.151-0.764-12.213-1.721-20.009
				c-0.951-7.746-2.09-14.767-3.172-19.909c-0.175-0.834,0.021-1.67,0.595-2.209C247.436,348.543,247.63,348.111,247.572,347.64z"/>
			<path style="fill:#407BFF;" d="M200.208,347.64c0.085-0.696,0.698-1.307,1.57-1.692l0.079-0.639
				c-0.777-0.384-1.24-0.996-1.154-1.691c0.144-1.17,1.766-2.118,3.625-2.118c1.858,0,3.248,0.948,3.105,2.118
				c-0.085,0.696-0.698,1.307-1.57,1.691l-0.078,0.639c0.777,0.384,1.24,0.996,1.154,1.692c-0.058,0.471-0.358,0.903-0.816,1.252
				c-0.706,0.539-1.108,1.375-1.138,2.209c-0.182,5.142-0.766,12.163-1.717,19.909c-0.957,7.796-2.106,14.858-3.193,20.009
				c-0.177,0.84,0.02,1.684,0.599,2.227c0.374,0.35,0.569,0.783,0.511,1.254c-0.085,0.696-0.698,1.307-1.57,1.691l-0.079,0.639
				c0.777,0.384,1.24,0.995,1.154,1.691c-0.037,0.302-0.174,0.589-0.388,0.848c-0.528,0.639-0.961,1.347-1.095,2.128
				c-0.995,5.783-2.015,10.345-2.873,12.809h-1.894c-0.253-2.463-0.152-7.025,0.273-12.809c0.057-0.781-0.201-1.488-0.573-2.128
				c-0.15-0.259-0.217-0.546-0.18-0.848c0.085-0.696,0.698-1.307,1.57-1.691l0.079-0.639c-0.777-0.384-1.24-0.996-1.154-1.691
				c0.058-0.472,0.359-0.905,0.819-1.254c0.712-0.542,1.117-1.387,1.146-2.227c0.178-5.151,0.764-12.213,1.721-20.009
				c0.951-7.746,2.09-14.767,3.172-19.909c0.175-0.834-0.021-1.67-0.595-2.209C200.344,348.543,200.15,348.111,200.208,347.64z"/>
		</g>
		<path style="fill:#407BFF;" d="M188.08,264.993c-3.931,0-5.896,0-9.827,0c1.188,5.307,1.752,7.961,2.822,13.268
			c3.751,0,5.627,0,9.379,0c1.666,0,2.824-1.233,2.578-2.753c-0.501-3.105-0.762-4.657-1.304-7.761
			C191.463,266.225,189.826,264.993,188.08,264.993z"/>
		<g>
			<path style="fill:#407BFF;" d="M180.75,339.013L180.75,339.013c-0.847,0-1.654-0.806-1.805-1.8
				c-3.047-19.993-7.034-39.886-12.034-59.484c-0.251-0.994,0.43-1.8,1.525-1.8l0,0c1.094,0,2.176,0.806,2.413,1.8
				c4.725,19.611,8.428,39.505,11.189,59.484C182.176,338.207,181.598,339.013,180.75,339.013z"/>
			<g>
				<path style="fill:#407BFF;" d="M168.118,339.013L168.118,339.013c-0.847,0-1.701-0.806-1.911-1.8
					c-4.229-20.044-9.382-39.936-15.515-59.484c-0.309-0.994,0.325-1.8,1.42-1.8l0,0c1.095,0,2.224,0.806,2.519,1.8
					c5.858,19.56,10.727,39.452,14.669,59.484C169.496,338.207,168.965,339.013,168.118,339.013z"/>
				<path style="fill:#407BFF;" d="M193.382,339.013L193.382,339.013c-0.847,0-1.607-0.806-1.7-1.8
					c-1.872-19.938-4.69-39.832-8.554-59.484c-0.193-0.994,0.536-1.8,1.63-1.8l0,0c1.095,0,2.129,0.806,2.308,1.8
					c3.587,19.666,6.121,39.56,7.709,59.484C194.855,338.207,194.229,339.013,193.382,339.013z"/>
			</g>
		</g>
		<g style="opacity:0.3;">
			<path d="M180.75,339.013L180.75,339.013c-0.847,0-1.654-0.806-1.805-1.8c-3.047-19.993-7.034-39.886-12.034-59.484
				c-0.251-0.994,0.43-1.8,1.525-1.8l0,0c1.094,0,2.176,0.806,2.413,1.8c4.725,19.611,8.428,39.505,11.189,59.484
				C182.176,338.207,181.598,339.013,180.75,339.013z"/>
			<g>
				<path d="M168.118,339.013L168.118,339.013c-0.847,0-1.701-0.806-1.911-1.8c-4.229-20.044-9.382-39.936-15.515-59.484
					c-0.309-0.994,0.325-1.8,1.42-1.8l0,0c1.095,0,2.224,0.806,2.519,1.8c5.858,19.56,10.727,39.452,14.669,59.484
					C169.496,338.207,168.965,339.013,168.118,339.013z"/>
				<path d="M193.382,339.013L193.382,339.013c-0.847,0-1.607-0.806-1.7-1.8c-1.872-19.938-4.69-39.832-8.554-59.484
					c-0.193-0.994,0.536-1.8,1.63-1.8l0,0c1.095,0,2.129,0.806,2.308,1.8c3.587,19.666,6.121,39.56,7.709,59.484
					C194.855,338.207,194.229,339.013,193.382,339.013z"/>
			</g>
		</g>
		<path style="fill:#407BFF;" d="M186.506,278.261c-12.406,0-24.812,0-37.218,0c-1.666,0-3.419-1.233-3.924-2.753
			c-1.029-3.105-1.554-4.657-2.624-7.761c-0.524-1.521,0.46-2.753,2.206-2.753c12.999,0,25.998,0,38.998,0
			c1.745,0,3.4,1.233,3.687,2.753c0.586,3.105,0.869,4.657,1.415,7.761C189.313,277.028,188.172,278.261,186.506,278.261z"/>
		<path style="opacity:0.3;" d="M186.506,278.261c-12.406,0-24.812,0-37.218,0c-1.666,0-3.419-1.233-3.924-2.753
			c-1.029-3.105-1.554-4.657-2.624-7.761c-0.524-1.521,0.46-2.753,2.206-2.753c12.999,0,25.998,0,38.998,0
			c1.745,0,3.4,1.233,3.687,2.753c0.586,3.105,0.869,4.657,1.415,7.761C189.313,277.028,188.172,278.261,186.506,278.261z"/>
	</g>
</g>
</svg>
